<?xml version="1.0" encoding="utf-8"?>
<!-- Generator: Adobe Illustrator 21.0.0, SVG Export Plug-In . SVG Version: 6.00 Build 0)  -->
<svg version="1.1" id="Layer_1" xmlns="http://www.w3.org/2000/svg" xmlns:xlink="http://www.w3.org/1999/xlink" x="0px" y="0px"
	 viewBox="0 0 170.1 218.4" style="enable-background:new 0 0 170.1 218.4;" xml:space="preserve">
<style type="text/css">
	.ip-st0{fill:#646871;}
</style>
<g>
	<path class="ip-st0" d="M77.2,90c-1.4-7-3-15.3-4.6-24.1c-0.6-3-2-6-3.8-8.6c-1.8-2.6-4.4-4.8-7.2-6.4c-1.4-0.8-2.8-1.4-4.2-1.8
		c-3.6,2.6-8,4-12.5,4c-4.8,0-9.2-1.4-12.7-4c-1.4,0.4-3,1-4.2,1.8c-3,1.6-5.4,3.8-7.2,6.4c-1.8,2.6-3.2,5.6-3.8,8.6
		c-1.6,8.8-3.2,16.9-4.6,24.1C9.8,104.1,8,113.4,8,113.4c-0.6,2.8,1.4,5.6,4.2,6.2c2.8,0.6,5.4-1.2,6-4c0,0,2.2-9.3,5.4-23.3
		c1-4,2-8.4,3-12.9L22.7,118c0,1.2,1,2.4,2.4,2.4h0.6c0,27.3,0,54.5,0.2,81.8c0,3.8,3,6.8,6.8,7c3.8,0.2,7.2-2.8,7.4-6.6
		c1.2-25.1,2.2-50.3,3.2-75.4h4.2l3.2,75.6c0.2,3.8,3.2,6.8,7,6.8c3.8,0,7-3.2,7-7v-81.8h0.8c1.2,0,2.4-1,2.4-2.4l-3.8-38.2
		c1,4.6,2,8.8,2.8,12.5C69.9,106.7,72,116,72,116c0.6,2.8,3.2,4.6,6,4c2.8-0.6,4.6-3.2,4.2-6.2C81.8,113.2,80,103.9,77.2,90L77.2,90
		z"/>
	<path class="ip-st0" d="M61.5,31.1c0,9.2-7.5,16.7-16.7,16.7c-9.2,0-16.7-7.5-16.7-16.7c0-9.2,7.5-16.7,16.7-16.7
		C54,14.4,61.5,21.8,61.5,31.1"/>
	<path class="ip-st0" d="M143.1,32.7c0,9.2-7.5,16.7-16.7,16.7c-9.2,0-16.7-7.5-16.7-16.7c0-9.2,7.5-16.7,16.7-16.7
		C135.6,15.9,143.1,23.4,143.1,32.7"/>
	<path class="ip-st0" d="M157.6,90.7c-1.6-6.8-3.4-14.5-5.4-22.9c-0.4-1.2-4.2-15.1-14.1-16.5c-3.4,2.2-7.4,3.4-11.5,3.4
		c-4.4,0-8.4-1.2-11.7-3.4c-10.1,1.4-13.9,15.3-14.1,16.5c-2,8.4-3.8,16.1-5.4,22.9C92.1,104.1,90,113,90,113
		c-0.6,2.6,1,5.2,3.4,5.8c2.6,0.8,5.2-0.8,6-3.4c0,0,2.4-8.8,6-22.1c1-3.6,2-7.6,3.2-11.7l0.4,20.5l-11.7,38.2c-0.8,4,2,7.8,6,7.8
		l6.2,0.2l-0.2,54.9c0,3.2,2.4,5.8,5.6,6c3.2,0.2,6-2.4,6.2-5.6l2.2-54.7h6.8l2.2,54.7c0.2,3.2,2.8,5.6,6,5.6s5.8-2.6,5.8-6
		l-0.2-54.9l6.2-0.2c4-0.2,7-4,6-7.8l-11.7-38.2l0.4-20.3c1.2,4.2,2.2,8,3.2,11.5c3.6,13.3,6,22.1,6,22.1c0.8,2.6,3.4,4.2,6,3.4
		c2.6-0.8,4-3.2,3.4-5.8C163,112.8,160.8,104.1,157.6,90.7L157.6,90.7z"/>
</g>
</svg>
