<?xml version="1.0" encoding="utf-8"?>
<!-- Generator: Adobe Illustrator 21.0.0, SVG Export Plug-In . SVG Version: 6.00 Build 0)  -->
<svg version="1.1" id="Layer_1" xmlns="http://www.w3.org/2000/svg" xmlns:xlink="http://www.w3.org/1999/xlink" x="0px" y="0px"
	 viewBox="0 0 801.1 189.6" style="enable-background:new 0 0 801.1 259.6;" xml:space="preserve">
<style type="text/css">
	.ch-st0{fill:#DA6730;}
	.ch-st1{fill:#656871;}
	.ch-st2{fill:#FFFFFF;}
	.ch-st3{fill:#8A919B;}
	.ch-st4{font-family:'CompromisBold';  font-style: normal;}
	.ch-st5{font-size:26.8269px;}
	.ch-st6{font-family:'Compromis';  font-style: normal;}
	.ch-st7{opacity:0.8;fill:#FFFFFF;}
	.ch-st8{font-size:18.5284px;}
	.ch-st9{font-size:15px;}
	.ch-st10{fill:none;stroke:#DA672E;stroke-width:2;stroke-miterlimit:10;}
	.ch-st11{fill:none;stroke:#DA672E;stroke-width:2;stroke-miterlimit:10;stroke-dasharray:5.3353,5.3353,5.3353,5.3353;}
	.ch-st12{fill:none;stroke:#DA672E;stroke-width:2;stroke-miterlimit:10;stroke-dasharray:5.3353,5.3353,5.3353,5.3353,5.3353,5.3353;}
	.ch-st13{fill:#414042;}
	.ch-st14{font-family:'CompromisBold'; font-style: normal; }
	.ch-st15{font-size:19.941px;}
	.ch-st16{font-size:11.941px;}

	.ch-st0:hover {
		fill: #DD7D57;
	}
	.ch-st1:hover {
		fill: #75777C;
	}
	.ch-st3:hover {
		fill: #A3A9AF;
	}


</style>
<rect x="9.3" y="12.7" class="ch-st0" width="779.6" height="104.1"/>
<g>
	<rect x="8.3" y="11.7" class="ch-st1" width="638.6" height="96.6"/>
	<path class="ch-st2" d="M645.9,12.7v94.6H9.3V12.7H645.9 M647.9,10.7h-2H9.3h-2v2v94.6v2h2h636.6h2v-2V12.7V10.7L647.9,10.7z"/>
</g>
<g>
	<rect x="8.5" y="11.9" class="ch-st3" width="328.8" height="85.2"/>
	<path class="ch-st2" d="M336.6,12.7v83.7H9.3V12.7H336.6 M338,11.2h-1.5H9.3H7.8v1.5v83.7v1.5h1.5h327.3h1.5v-1.5V12.7V11.2L338,11.2z
		"/>
</g>
<text transform="matrix(1 0 0 1 664.6777 46.6699)" class="ch-st2 ch-st4 ch-st5">1.180M €</text>
<text transform="matrix(1 0 0 1 518.6777 46.6699)" class="ch-st2 ch-st6 ch-st5">879,2M €</text>
<text transform="matrix(1 0 0 1 210.6777 46.6699)" class="ch-st2 ch-st6 ch-st5">386,1M €</text>
<text transform="matrix(1 0 0 1 242 68.75)" class="ch-st7 ch-st6 ch-st8">Realitzat</text>
<text transform="matrix(1 0 0 1 516.0789 68.75)" class="ch-st7 ch-st6 ch-st8">Pressupostat</text>
<text transform="matrix(1 0 0 1 672.4537 66.4167)"><tspan x="0" y="0" class="ch-st2 ch-st6 ch-st16">Inversions que ens</tspan><tspan x="-2.8" y="15.6" class="ch-st2 ch-st6 ch-st16">correspondrien per</tspan><tspan x="-6.2" y="31.2" class="ch-st2 ch-st6 ch-st16">número d’habitants</tspan></text>

<rect x="564.1" y="-80.3" transform="matrix(-1.836970e-16 1 -1 -1.836970e-16 706.8345 -423.894)" class="ch-st13" width="2.5" height="443.6"/>
<rect x="334.7" y="131.1" transform="matrix(-1.836970e-16 1 -1 -1.836970e-16 477.3803 -212.3316)" class="ch-st13" width="20.4" height="2.8"/>
<rect x="775.5" y="131.1" transform="matrix(-1.836970e-16 1 -1 -1.836970e-16 918.2467 -653.1981)" class="ch-st13" width="20.4" height="2.8"/>
<text transform="matrix(1 0 0 1 527.0686 166.165)" class="ch-st13 ch-st14 ch-st15">793,9M€</text>
<text transform="matrix(1 0 0 1 459.4061 184.915)" class="ch-st13 ch-st6 ch-st9">Milions que s’han deixat d’invertir</text>
</svg>
