<?xml version="1.0" encoding="utf-8"?>
<!-- Generator: Adobe Illustrator 21.0.0, SVG Export Plug-In . SVG Version: 6.00 Build 0)  -->
<svg version="1.1" id="Layer_1" xmlns="http://www.w3.org/2000/svg" xmlns:xlink="http://www.w3.org/1999/xlink" x="0px" y="0px"
	 viewBox="0 0 170.1 218.4" style="enable-background:new 0 0 170.1 218.4;" xml:space="preserve">
<style type="text/css">
	.mon-st0{fill:#A73C2E;}
</style>
<path class="mon-st0" d="M22.3,169.2c0.3,0.2,0.7,0.5,1,0.7v5.7c-1.2-1.4-1.7-2.8-1.7-4C21.6,170.8,21.8,169.9,22.3,169.2L22.3,169.2z
	 M23.9,147.9c2.1,1,4.3,1.9,6.5,2.8c3.1,1,6.2,1.9,9.7,2.4c4.5,0.9,9.3,1.2,14.3,1.2c6.4,0,12.4-0.7,17.9-2.1
	c1.5-0.3,3.1-0.9,4.7-1.2c-0.2,1-0.2,2.2-0.2,3.3c0,3.6,0.5,7.2,1.4,10.7c-5.5,1.9-12.4,3.1-20.3,3.1c-11.5,0-21-2.6-27.4-6
	c-1.9-1-3.4-2.1-4.8-3.3c-1.5-1.4-2.8-2.8-3.3-4c-0.3-0.9-0.7-1.5-0.7-2.2C21.6,151.1,22.5,149.6,23.9,147.9L23.9,147.9z
	 M18.9,126.2c0.3,0.2,0.7,0.5,1,0.7v5.7c-1.2-1.4-1.7-2.8-1.7-4C18.2,127.7,18.4,126.9,18.9,126.2L18.9,126.2z M81.9,174.7
	c1,1.9,2.2,3.6,3.4,5.3v0.9c-1,0.5-2.2,1.2-3.4,1.7V174.7z M71.6,177.2c1.2-0.2,2.2-0.3,3.4-0.7v8.3c-1,0.3-2.2,0.5-3.4,0.9V177.2z
	 M61.3,178.4c1.2,0,2.2-0.2,3.4-0.2v8.6c-1.2,0.2-2.2,0.2-3.4,0.2V178.4z M50.9,178c1.2,0.2,2.2,0.2,3.4,0.2v8.6
	c-1.2,0-2.2-0.2-3.4-0.2V178z M40.6,176.5c1.2,0.2,2.2,0.5,3.4,0.7v8.4c-1.2-0.2-2.4-0.5-3.4-0.9V176.5z M30.3,173.4
	c1,0.5,2.2,0.9,3.4,1.2v7.9c-1.2-0.5-2.4-1-3.4-1.7V173.4z M81.9,133.7c-0.9,1.7-1.7,3.3-2.4,5.2c-0.3,0.2-0.7,0.3-1,0.5v-7.9
	c1-0.3,2.2-0.9,3.3-1.2c0,0,0.2,0,0.2-0.2V133.7z M68.2,134.1c1.2-0.2,2.2-0.3,3.4-0.7v8.3c-1,0.3-2.2,0.5-3.4,0.9V134.1z
	 M57.8,135.3c1.2,0,2.2-0.2,3.4-0.2v8.6c-1.2,0.2-2.2,0.2-3.4,0.2V135.3z M47.5,134.9c1.2,0.2,2.2,0.2,3.4,0.2v8.6
	c-1.2,0-2.2-0.2-3.4-0.2V134.9z M37.2,133.4c1,0.2,1.9,0.3,2.9,0.5h0.5v8.4c-1.2-0.2-2.4-0.5-3.4-0.9L37.2,133.4z M26.8,137.7v-7.6
	c1,0.5,2.2,0.9,3.4,1.2v7.9c-0.7-0.3-1.4-0.7-2.1-1C27.7,138.2,27.2,138,26.8,137.7L26.8,137.7z M28.5,87.9c0-0.5,0.3-1,0.5-1.5
	c0.3,0.3,0.7,0.5,1,0.7v5.7c-1.2-1.4-1.7-2.8-1.7-4C28.5,88.4,28.5,88.3,28.5,87.9z M99.2,87.2c0.3-0.2,0.7-0.5,1-0.7
	c0.3,0.9,0.7,1.5,0.7,2.2c0,1.2-0.5,2.6-1.7,4V87.2z M92.3,98.1c-0.7,0.3-1.4,0.7-2.2,1c-0.3,0.2-0.9,0.3-1.2,0.5v-7.9
	c1.2-0.3,2.4-0.9,3.4-1.4L92.3,98.1z M78.5,94.5c0.9-0.2,1.7-0.3,2.6-0.5c0.3,0,0.5-0.2,0.9-0.2v8.3c-1,0.3-2.2,0.5-3.4,0.9V94.5z
	 M68.2,104.3v-8.6h1.2c0.7,0,1.5,0,2.2-0.2v8.6c-0.5,0-1,0.2-1.5,0.2C69.5,104.1,68.9,104.1,68.2,104.3L68.2,104.3z M61.3,104.3
	c-1.2,0-2.2-0.2-3.4-0.2v-8.6c1.2,0.2,2.2,0.2,3.4,0.2V104.3z M47.5,102v-8.3c0.5,0.2,1,0.2,1.5,0.3c0.7,0.2,1.4,0.2,1.9,0.3v8.4
	c-0.3,0-0.9-0.2-1.2-0.2C49,102.6,48.2,102.4,47.5,102L47.5,102z M37.2,90.7c0.2,0,0.2,0.2,0.3,0.2c1,0.3,2.1,0.9,3.1,1.2v7.9
	c-1.2-0.5-2.4-1-3.4-1.7L37.2,90.7z M64.7,54.3c21.7,0,36.2,9.3,36.2,15.5c0,0.7-0.2,1.5-0.7,2.2c-0.7,1.4-1.7,2.6-3.3,4
	c-1.4,1-2.9,2.2-4.8,3.3c-5.3,2.8-12.9,5.2-22.1,5.9c-1.7,0.2-3.4,0.2-5.3,0.2c-5.5,0-10.5-0.7-15-1.5c-4.8-1.2-9.1-2.8-12.4-4.5
	c-1.9-1-3.4-2.1-4.8-3.3c-1.5-1.4-2.8-2.8-3.3-4c-0.3-0.9-0.7-1.5-0.7-2.2C28.5,63.6,43,54.3,64.7,54.3L64.7,54.3z M24.2,101.5
	c1.7,1.7,3.8,3.3,6.2,4.7c2.1,1.4,4.5,2.4,7.1,3.4c3.4,1.4,7.4,2.6,11.5,3.4c4.8,1,10.2,1.5,15.7,1.5c1.5,0,3.1,0,4.7-0.2
	c4.1-0.2,8.1-0.7,11.9-1.5c2.6-0.5,5.2-1.2,7.4-2.1c0.7-0.2,1.2-0.3,1.9-0.7c0,0.5-0.3,1-0.5,1.4c-0.7,1.4-1.7,2.6-3.3,4
	c-1.4,1-2.9,2.2-4.8,3.3c-6.4,3.4-15.8,6-27.4,6c-11.6,0-21.2-2.4-27.6-5.9c-1.9-1-3.4-2.1-4.8-3.3c-1.5-1.4-2.8-2.8-3.3-4
	c-0.3-0.9-0.7-1.5-0.7-2.2C18.2,107,20.4,104.1,24.2,101.5L24.2,101.5z M119.8,187c-7.1,0-13.4-2.2-18.8-6c-1.4-1-2.8-2.1-4-3.3
	c-1.4-1.2-2.6-2.6-3.6-4.1c-0.3-0.5-0.9-1.2-1.2-1.7l-0.9-1.5c-0.9-1.5-1.5-3.1-2.2-4.7c-0.2-0.5-0.3-1-0.5-1.5
	c-0.2-0.5-0.3-1-0.5-1.5c-0.2-0.7-0.3-1.4-0.5-2.1c-0.3-1.9-0.5-4.2-0.5-6.2c0-0.9,0-1.9,0.2-2.8c0.2-1.9,0.5-3.6,0.9-5.3
	c0-0.3,0.2-0.7,0.3-1.2c0.5-1.7,1.2-3.4,1.9-5c0.7-1.4,1.4-2.8,2.2-4c0.2-0.2,0.2-0.3,0.3-0.5c0.3-0.5,0.7-1,1-1.4
	c1.2-1.4,2.4-2.8,3.8-4c1-0.9,2.1-1.7,3.1-2.6c5.3-3.8,11.9-6,19-6c18.1,0,32.7,14.6,32.7,32.7C152.6,172.3,137.9,187,119.8,187
	L119.8,187z M119.8,111.2c-6.9,0-13.3,1.5-19,4.5v-6.2c0-1.4-0.2-2.8-0.5-4.1c6.2-4.1,10.2-9.1,10.9-14.8V69.8
	c0-14.3-20.8-25.8-46.5-25.8S18.2,55.5,18.2,69.8v19c0,1.4,0.2,2.8,0.5,4.1c-6.9,4.5-10.9,10.3-10.9,16.5v19c0,5.2,2.6,9.8,7.2,13.8
	c-2.4,3.1-3.8,6.5-3.8,10.3v19c0,14.3,20.8,25.8,46.5,25.8c14.3,0,27-3.6,35.5-9.1c7.2,5.7,16.5,9.1,26.5,9.1
	c23.8,0,43.1-19.3,43.1-43.1S143.6,111.2,119.8,111.2z"/>
</svg>
