<?xml version="1.0" encoding="utf-8"?>
<!-- Generator: Adobe Illustrator 21.0.0, SVG Export Plug-In . SVG Version: 6.00 Build 0)  -->
<svg version="1.1" id="Layer_1" xmlns="http://www.w3.org/2000/svg" xmlns:xlink="http://www.w3.org/1999/xlink" x="0px" y="0px"
	 viewBox="0 0 246.9 144.9" style="enable-background:new 0 0 246.9 144.9;" xml:space="preserve">
<style type="text/css">
	.st0{fill:url(#SVGID_1_);}
	.st1{fill:url(#SVGID_2_);}
	.st2{fill:url(#SVGID_3_);}
	.st3{fill:url(#SVGID_4_);}
	.st4{fill:url(#SVGID_5_);}
	.st5{fill:url(#SVGID_6_);}
	.st6{fill:url(#SVGID_7_);}
	.st7{fill:url(#SVGID_8_);}
	.st8{fill:url(#SVGID_9_);}
	.st9{fill:url(#SVGID_10_);}
	.st10{fill:url(#SVGID_11_);}
	.st11{fill:url(#SVGID_12_);}
	.st12{fill:url(#SVGID_13_);}
	.st13{fill:url(#SVGID_14_);}
	.st14{fill:url(#SVGID_15_);}
	.st15{fill:url(#SVGID_16_);}
	.st16{fill:url(#SVGID_17_);}
</style>
<linearGradient id="SVGID_1_" gradientUnits="userSpaceOnUse" x1="53.7857" y1="-15.4721" x2="255.1462" y2="145.7523">
	<stop  offset="0" style="stop-color:#E28226"/>
	<stop  offset="1" style="stop-color:#D44127"/>
</linearGradient>
<path class="st0" d="M109.6,77.6c-0.4,0.5-1.1,0.7-1.7,0.5c-0.5-0.2-0.7-0.7-0.8-0.9c-0.1-0.2-0.1-0.5,0-0.8l3.3-4.7
	c0.3-0.3,0.6-0.4,0.8-0.4c0.1,0,0.1,0,0.2,0c0.2,0,0.6,0.1,0.9,0.3c0.6,0.5,0.7,1.3,0.3,1.9L109.6,77.6L109.6,77.6z M99.4,75.4
	c-0.5-0.3-0.9-0.7-1-1.3c-0.1-0.5,0-0.9,0.2-1.3l6.2-9.2c0.3-0.4,0.8-0.7,1.3-0.8c0.1,0,0.2,0,0.3,0c0.4,0,0.9,0.2,1.2,0.4
	c0.8,0.6,1,1.8,0.4,2.7l-1.8,2.7c0,0.1-0.1,0.1-0.1,0.2l-3,4.3c-0.1,0.1-0.2,0.3-0.2,0.4l-0.9,1.3C101.4,75.7,100.3,75.9,99.4,75.4
	L99.4,75.4z M90.8,71.5c-0.9-0.6-1.1-1.9-0.5-2.7l0.8-1.2c0.1-0.1,0.1-0.1,0.2-0.2c1.2-1.8,2.6-3.8,3.8-5.6c0,0,0-0.1,0.1-0.1
	l3.2-4.7c0.4-0.6,1-0.9,1.6-0.9c0.4,0,0.7,0.1,1.1,0.3c0.5,0.3,0.8,0.7,0.9,1.3c0.1,0.5,0,1.1-0.3,1.5l-1.1,1.6c0,0-0.1,0.1-0.1,0.1
	l-6.1,8.8c-0.1,0.2-0.2,0.3-0.3,0.5L93.6,71c-0.3,0.4-0.8,0.7-1.3,0.8C91.8,71.9,91.3,71.8,90.8,71.5L90.8,71.5z M83.8,62.2l3.9-5.5
	c0.4-0.5,0.9-0.8,1.6-0.8c0.4,0,0.7,0.1,1.1,0.3c0.4,0.3,0.8,0.7,0.9,1.2c0.1,0.5,0,1-0.3,1.4L87,64.5c-0.3,0.4-0.7,0.6-1.1,0.7
	c-0.5,0.1-1,0-1.6-0.4C83.4,64.2,83.2,63,83.8,62.2L83.8,62.2z M182.7,39.2c-0.4-1.4-1.8-2.2-3.1-1.8l-15.3,4.1
	c-0.5,0.1-0.9,0.4-1.2,0.7l-8.7,9.4c0,0-0.1-0.1-0.1-0.1l-31.8-20.6c-1.8-1.2-4.2-1.3-6.1-0.3l-14.8,7.7c-0.3,0.2-0.7,0.1-1-0.1
	c-0.3-0.2-0.3-0.5-0.4-0.6c0-0.1,0-0.4,0.2-0.7l7-9.1c1.1-1.4,2.7-2.4,4.5-2.7l8.2-1.5c4.4-0.8,8.9-0.8,13.4,0.2l8.7,1.8
	c1.2,0.2,2.4,0.1,3.5-0.3c0.2-0.1,0.4-0.2,0.5-0.3l17.3-12.5c1.1-0.8,1.4-2.4,0.6-3.6c-0.8-1.1-2.4-1.4-3.6-0.6l-16.9,12.3
	c-0.1,0-0.2,0-0.3,0l-8.7-1.8c-5.1-1.1-10.2-1.1-15.3-0.2l-8.2,1.5c-2.3,0.4-4.3,1.4-6,2.9l-7.3-1.2c0,0-0.1,0-0.1,0L80.7,8.4
	c-1.1-0.9-2.7-0.7-3.6,0.4c-0.9,1.1-0.7,2.7,0.4,3.6L94.3,26c0.1,0.1,0.3,0.2,0.4,0.3c0.6,0.3,1.2,0.5,1.8,0.6l4.3,0.7l-4.7,6.2
	c-1,1.3-1.4,2.9-1.2,4.5c0.2,1.6,1.1,3,2.4,4c1.9,1.4,4.4,1.6,6.5,0.5l14.8-7.7c0.3-0.2,0.7-0.1,0.9,0l31.8,20.6
	c0.6,0.4,1,1,1.1,1.6c0.1,0.7,0,1.4-0.4,2c-0.8,1.2-2.3,1.5-3.5,0.8l-1.8-1.1l-0.5-0.3l-14.9-8.9c-1.2-0.7-2.8-0.3-3.5,0.9
	c-0.7,1.2-0.3,2.8,0.9,3.5l13.8,8.2l1.1,0.7l0.5,0.3c0.5,0.3,0.6,0.7,0.7,0.9c0.1,0.2,0.1,0.7-0.2,1.1c-0.9,1.3-2.7,1.8-4.1,1
	l-13.5-7.3c-1.2-0.7-2.8-0.2-3.5,1c-0.7,1.2-0.2,2.8,1,3.5l9.7,5.3l2.4,1.5c0.4,0.3,0.6,0.7,0.6,0.9s0.1,0.6-0.2,1
	c0,0-0.1,0.1-0.1,0.1c-0.8,1.2-2.3,1.6-3.6,1L123,68.2c-1.3-0.6-2.8-0.1-3.4,1.1c-0.6,1.3-0.1,2.8,1.1,3.4l7.8,3.9
	c-1.5,0.7-3.1,0.9-4.8,0.7l-7-1.1l0.1-0.1c1.9-2.8,1.4-6.6-1.2-8.8c-0.7-0.5-1.4-0.9-2.2-1.2c0.5-2.5-0.4-5.3-2.5-7
	c-1.1-0.9-2.4-1.4-3.7-1.5c0-0.4,0-0.8-0.1-1.2c-0.4-1.9-1.5-3.5-3.1-4.6c-3-1.9-7-1.3-9.2,1.3c-0.5-0.6-1.1-1.1-1.8-1.6
	c-2.6-1.6-5.9-1.3-8.1,0.6l-7-9.3c-0.3-0.4-0.8-0.7-1.3-0.9l-15-4.8c-1.3-0.4-2.8,0.3-3.2,1.7c-0.4,1.3,0.3,2.8,1.7,3.2l14.3,4.5
	l7.4,9.7l-1.9,2.7c-2.2,3.2-1.5,7.5,1.8,9.8c1,0.7,2.2,1.2,3.5,1.3c0.1,2.1,1.2,4.1,3,5.3c1.2,0.9,2.6,1.3,4.1,1.3
	c0.4,0,0.9,0,1.3-0.1c0.2,0,0.4-0.1,0.6-0.2c0.6,1.4,1.7,2.5,3.1,3.3c1.1,0.6,2.2,0.9,3.4,0.9c0.9,0,1.8-0.2,2.7-0.5
	c0.7,1.1,1.7,2,3,2.5c0.8,0.3,1.6,0.5,2.5,0.5c1.9,0,3.7-0.8,4.9-2.3l9.6,1.5c0.7,0.1,1.4,0.2,2.1,0.2c3.5,0,6.8-1.3,9.3-3.7
	c0.2,0,0.3,0,0.5,0c2.6,0,5.1-1.3,6.6-3.6c0.7-1,1.1-2.1,1.2-3.3c2.6-0.1,5-1.4,6.5-3.7c0.5-0.8,0.9-1.7,1-2.7c2.5,0,5-1.2,6.4-3.5
	c1.1-1.7,1.5-3.8,1.1-5.8c0-0.2-0.1-0.4-0.2-0.5l8.9-9.6l14.6-3.9C182.3,41.9,183.1,40.5,182.7,39.2L182.7,39.2z"/>
<g>
	<g>
		<linearGradient id="SVGID_2_" gradientUnits="userSpaceOnUse" x1="-27.1682" y1="71.6348" x2="174.1924" y2="232.8593">
			<stop  offset="0" style="stop-color:#E28226"/>
			<stop  offset="1" style="stop-color:#D44127"/>
		</linearGradient>
		<path class="st1" d="M23.9,94.9c0,3.2-2.6,5.5-5.7,5.8c0,0,0,0,0,0v0c-0.1,0-0.2,0-0.4,0c-0.5,0-0.5,0-0.6-0.1c0,0,0,0,0,0
			c0,0-0.3,0-0.4-0.1l0.1-0.1c-0.1,0-0.3,0-0.3,0v0c-0.1,0-0.1,0-0.2,0c-0.8,5.3-1.5,11.8-2.1,17.5c0,1-0.1,1.8-1.1,2.5v0
			c0,0-0.1-0.1-0.1-0.3c-0.3,0.1-0.2,0.4-0.3,0.6c-0.1,0,0-0.2-0.1-0.3c0,0,0,0.1-0.1,0.1c0.1-0.1,0-0.1,0.1-0.3l-0.1,0.1V120
			c0,0-0.1,0-0.1,0v0c-0.2,0.2-0.1,0.5-0.2,0.5c0,0,0-0.5,0-0.5c0,0,0,0,0,0c0,0,0,0-0.1,0h0h0c0,0.1,0,0.2,0,0.3c0,0,0,0,0,0.1
			c0,0.1-0.1,0.1-0.1,0.3c0,0,0-0.1,0-0.1c0-0.1,0-0.1,0-0.2c0,0,0-0.1,0-0.2c0,0,0,0-0.1,0c0,0,0.1,0,0.1,0c0,0,0,0-0.1,0v0v0h0.1
			c0,0.1,0,0.1-0.1,0.1v0c0,0.1-0.1,0.2-0.1,0.5c-0.1-0.1-0.3-0.2-0.3-0.4c-0.1,0.1-0.2,0-0.2,0.3c0,0-0.2-0.1-0.2-0.1h0
			c0,0,0-0.1,0-0.1c0,0-0.1,0.1-0.1,0.2c0-0.1,0-0.3-0.2-0.3c0,0.1,0,0.2,0,0.3c0,0,0,0.1-0.2,0.1c-0.1,0,0-0.1-0.1-0.1v0.3
			c0,0-0.1-0.1-0.1-0.1c0,0,0,0,0,0.1c0,0,0,0.1,0,0.2c0,0.2-0.1,0.2-0.1,0.2c-0.2,0-0.7-0.4-0.7-0.7c0-4.8,0.5-9.5,1.2-14.4
			c0.6-5.3,1.2-11.4,2.1-17c0.1-1.1,1.3-1.7,1.8-1.7c0.8,0,3.2,0.2,3.2,1.3C20.7,89.7,23.9,91.8,23.9,94.9z M13,120.6
			c0,0,0,0.1,0,0.2c0,0-0.1-0.1-0.1-0.2H13z M20.7,94.4c0-1.3-1.4-2.7-3.1-3.1c-0.2,2.7-0.9,6.5-0.9,7.6
			C19.4,98.9,20.7,96.4,20.7,94.4z M17.9,100.6c0,0-0.1,0-0.2,0C17.8,100.6,17.9,100.6,17.9,100.6z"/>
		<linearGradient id="SVGID_3_" gradientUnits="userSpaceOnUse" x1="-15.8085" y1="57.4472" x2="185.552" y2="218.6717">
			<stop  offset="0" style="stop-color:#E28226"/>
			<stop  offset="1" style="stop-color:#D44127"/>
		</linearGradient>
		<path class="st2" d="M40.4,90.8c-0.1,0.1-0.1,0.1-0.1,0.2c0,0,0.1,0.1,0.1,0.2c0,0,0,0.1,0,0.1c0,0,0,0,0,0c0,0.2,0,0.5-0.3,0.8
			c0,0,0-0.2,0.1-0.3h0c-0.1,0-0.1,0.1-0.9,1.8c0.3-0.2,0.5-0.7,0.8-1.1v0.1c0,0.1-0.1,0.2-0.1,0.3c0.3-0.3,0.4-0.6,0.6-1.3
			c0,0,0,0.1,0,0.1v0.2c0,0,0,0,0,0.1c0,0.2-0.2,0.3-0.2,0.4c0,0,0,0.1,0.1,0.1c-0.3,1.3-2.4,3.8-3.3,5.1c0,0,0,0-0.1,0
			c0,0,0.2-0.6,0.4-0.7V97c0.6-0.8,1.6-2.1,2.1-3.1c0,0,0,0,0-0.1c0,0,0.3-0.4,0.3-0.4s0,0,0,0.1c0.2-0.2,0-0.4,0.2-0.5V93
			c-0.1,0-0.3,0.5-0.9,1.2h0.1c0,0.2-0.5,0.4-0.9,1.3c0,0-0.1,0-0.1-0.1c0,0-0.3,0.5-0.4,0.7l0-0.1c0,0.1-0.2,0.6-0.4,0.7h0
			c-0.1,0.1-0.2,0.3-0.3,0.4l0,0.1c0,0.3-0.7,1.2-0.7,1.1c-1.6,2-4.7,4.5-6.9,4.5c0,0-0.1,0-0.1,0c0,0,0,0,0,0v0
			c-0.4,0-0.6,0.1-1,0.1c-0.1,0-0.4-0.1-0.5-0.1c0,0,0,0.1-0.1,0.1c0-0.1-0.1-0.1-0.3-0.1h-0.2c-0.3-0.1-0.6-0.2-0.9-0.3
			c0.4,0.4,1,0.4,1.5,0.4h0.5c-0.1,0.1-0.1,0-0.3,0.1c0.3,0,0.3,0,0.3,0c-0.5,0-1.3-0.1-1.9-0.3c0.1,0.1,0.3,0.1,0.4,0.2
			c-0.3,0-0.5-0.1-0.6-0.2h0c0,0,0,0.1,0,0.1h0c0,0-0.1-0.1-0.1-0.1c-0.4,0-0.6-0.3-0.9-0.3c-1.6-1.5-2.3-3.3-2.3-5.3
			c0-3.9,3.8-9.6,8.3-9.6c0.9,0,0.9,0.5,1.5,0.8c0,0,0-0.1,0-0.1c0,0.1,0.1,0.1,0.1,0.1c0,0,0,0,0,0c0,0,0-0.1,0-0.1l0.1,0.2
			c0,0,0,0,0,0v-0.1c0.1,0.3,0.1,0.7,0.2,0.9c0.1,0.4,0.6,0.8,0.6,2c0,1.5-1,4.5-5.3,4.5c-0.6,0-1.3-0.1-1.8-0.2
			c-0.2,0.5-0.3,1.1-0.3,1.5c0,1.8,1.2,2.7,3,2.7c3.8,0,6.4-4.2,10.2-8.8c0,0,0.3-0.2,0.4-0.2C40.2,90.5,40.3,90.7,40.4,90.8z
			 M25.4,102.3c0.1,0,0.1,0.1,0.2,0.2C25.5,102.4,25.4,102.4,25.4,102.3z M27.5,93.3c0.7-0.5,3.8-2,4.2-3.8c-0.1,0-0.3,0-0.5,0
			c-0.7,0-1.4,0.5-1.9,0.9C28.6,91.2,27.8,92.3,27.5,93.3z M29.2,88.5c0.6-0.4,1.4-0.7,2.1-0.7c-0.1,0-0.1,0-0.2,0
			c-0.1,0-0.1,0-0.2,0c0,0-0.1,0-0.1,0c-0.1,0-0.4,0.1-0.4,0.1C29.9,88,29.5,88.3,29.2,88.5z M31.1,87.9c-0.2,0-0.2,0-0.4,0
			c0,0,0,0,0,0v0c-0.1,0-0.8,0.2-1,0.5c0.3,0,0.5-0.1,0.8-0.3c0.1,0,0.2,0,0.3,0S31,88,31.1,87.9L31.1,87.9z M30.6,87.7l0.8-0.1
			c-0.2,0-0.2,0-0.4,0l-0.1,0C30.9,87.7,30.6,87.6,30.6,87.7z M33.5,89.8c0-0.1-0.1-0.3-0.1-0.4c0.1,0.1,0.1,0.4,0.3,0.5
			c0-0.2-0.3-0.7-0.5-0.9C33.2,89.4,33.4,89.6,33.5,89.8z M38.7,94.1c-0.3,0.1-0.3,0.5-0.5,0.9v0.1c0,0-0.3,0.5-0.5,0.6
			c0.2-0.3,0.5-0.8,0.5-1.1c0,0.1,0,0.1-0.1,0.1v-0.1c-0.2,0.3-0.3,0.7-0.6,1.2l0-0.1c-0.1,0.3-0.3,0.4-0.3,0.6v0
			c0.1,0,0.1-0.1,0.1-0.1h0.1c-0.1,0-0.1,0.2-0.2,0.3c0.2-0.1,0.2-0.4,0.4-0.5c0,0,0,0,0.1,0c0,0,0.1-0.4,0.5-0.8c0,0,0.1,0,0,0.1
			c0-0.1,0.1-0.1,0.2-0.3V95c0-0.1,0-0.2,0-0.3v-0.1C38.4,94.4,38.6,94.3,38.7,94.1z M39.1,93.2c0-0.1,0.6-0.8,0.7-1.1
			c-0.3,0.3-1.2,1.1-1.2,1.8v0.1c0,0,0.2-0.4,0.3-0.4c0,0,0,0,0,0.1C39,93.6,38.9,93.5,39.1,93.2C39.1,93.3,39.1,93.3,39.1,93.2z"/>
		<linearGradient id="SVGID_4_" gradientUnits="userSpaceOnUse" x1="-9.9509" y1="50.1313" x2="191.4097" y2="211.3558">
			<stop  offset="0" style="stop-color:#E28226"/>
			<stop  offset="1" style="stop-color:#D44127"/>
		</linearGradient>
		<path class="st3" d="M50.3,92.4l0.1,0.3c0,0-0.1,0.3-0.1,0.4v0.3c0,0.1,0,0.2-0.1,0.4l-0.4,0.6c0,0-0.3,0.8-0.6,0.9
			c0,0,0,0.1,0,0.1c0,0-0.1,0.1-0.2,0.1c0,0,0.1,0,0.1,0v0.1H49c-0.1,0.6-0.7,1.1-1.2,1.6c0.6,0,0.5-0.6,0.9-0.8
			c0,0.3-0.2,0.5-0.3,0.6c0,0,0,0,0,0c-0.1,0-0.3,0.3-0.3,0.5v0.1c0-0.1,0.2-0.2,0.2-0.3c0,0,0,0,0-0.1c0.2-0.1,0.5-0.6,0.6-0.6
			c0,0,0.1-0.1,0.1-0.2l0,0c0-0.1,0.2,0,0.4-0.4c0,0,0,0.1,0.1,0.1V96c0,0,0,0,0,0.1c-0.1,0.2-0.4,0.3-0.5,0.6
			c0.1,0.1,0.1,0,0.1,0.1c0,0.2-0.1,0.5-0.4,0.5c0-0.1,0.2-0.1,0.2-0.2c-0.1,0-0.2,0.1-0.3,0.2c0,0,0,0,0,0h-0.1
			c-0.1,0.2-0.2,0.4-0.4,0.5h0.1c-0.1,0.3-0.1,0-0.2,0.5c-0.1-0.1-0.2-0.1-0.2-0.1c-0.1,0,0,0.1-0.1,0.2c0,0,0,0.2-0.1,0.2
			c0,0,0,0,0,0s0,0.1,0,0.1c0,0,0,0,0,0c-0.6,0.8-1.6,1.2-2.5,1.9c0,0,1.1-0.5,1.1-0.5l-0.2,0.4l-0.1,0c0,0.1-1.9,2.1-3.9,2.1
			c-1.1,0-3.6-1.2-3.6-3.3c0-2.9,3.6-8,3.6-9.2c0-0.3-1.2-0.6-1.3-0.7c-2.6,4.3-3,5.1-5,7.7c-0.9,0-1.3-0.4-1.3-1.3
			c0-0.1,0.1-0.2,0.1-0.3c1.2-1.6,3-4.6,4.4-6.9c-1-0.6-1.6-1.2-1.6-3.3c0-0.5,0.6-5.3,3.5-5.3c1.7,0,3,1.5,3,2.3
			c0,1.9-1.9,4.8-1.9,5.2c-0.1,0.4,4.4,1.1,4.4,3.4c0,2.8-3.4,8.1-3.8,10v0.1c0,0.1,0.1,0.2,0.2,0.2c0.7,0,6.4-7.7,7.4-9l0.1,0.2
			H50.3z M41.9,82.7L41.9,82.7c-1.1,0.5-2,2.3-2,3.6c0,0.2,0,0.4,0.1,0.6C40.7,85.7,41.7,84.2,41.9,82.7z M47.8,97.7
			c-0.1,0.1-0.3,0.3-0.4,0.4C47.6,98,47.7,97.9,47.8,97.7z M47.7,97.6c0.3-0.1,0.4-0.3,0.5-0.5l-0.1,0.1
			C48.1,97.3,48,97.5,47.7,97.6z M48.1,97c0-0.1,0.1-0.3,0.3-0.4C48.4,96.8,48.3,96.9,48.1,97z M48.3,98.3
			C48.2,98.3,48.2,98.3,48.3,98.3c0-0.1,0-0.2,0-0.2V98.3z M48.3,98L48.3,98C48.3,97.9,48.3,98,48.3,98C48.3,98,48.3,98,48.3,98z
			 M49.1,95.9C49.1,95.9,49,95.9,49.1,95.9C49,95.9,49,95.9,49.1,95.9C49.1,95.8,49.1,95.8,49.1,95.9z M49.2,95.7
			C49.2,95.7,49.2,95.7,49.2,95.7C49.2,95.7,49.2,95.6,49.2,95.7L49.2,95.7z M49.3,95.9c0,0,0,0.1,0,0.3
			C49.2,96.2,49.2,96.1,49.3,95.9C49.2,96,49.2,96,49.3,95.9L49.3,95.9z M49.3,95.5c0-0.2,0-0.2,0.1-0.2h0
			C49.4,95.4,49.4,95.4,49.3,95.5z M49.5,95.4c0,0-0.1,0.1-0.2,0.2C49.3,95.5,49.4,95.4,49.5,95.4z M49.4,95.6L49.4,95.6
			C49.5,95.6,49.5,95.6,49.4,95.6L49.4,95.6C49.4,95.7,49.4,95.7,49.4,95.6z M49.4,95.2C49.4,95.1,49.5,95.1,49.4,95.2
			C49.5,95.2,49.5,95.2,49.4,95.2C49.4,95.2,49.4,95.2,49.4,95.2z M49.4,96L49.4,96L49.4,96L49.4,96z M49.5,96
			c0-0.1,0.1-0.2,0.3-0.4v0c0-0.1,0.2-0.1,0.3-0.3c0,0.1,0,0.1,0,0.1c0,0,0,0,0,0v0c0,0.1-0.1,0.2-0.1,0.2v-0.1c0,0,0,0,0,0l0,0
			C49.8,95.8,49.8,96,49.5,96z M49.7,95.2c0,0,0,0-0.1,0.1C49.5,95.3,49.6,95.2,49.7,95.2C49.7,95.2,49.7,95.2,49.7,95.2z
			 M49.6,95.5c0,0,0-0.1,0.1-0.1c0,0,0.1,0,0.1,0C49.7,95.5,49.7,95.5,49.6,95.5z M49.6,95.1c0,0,0-0.2,0.1-0.2
			C49.8,95,49.6,95,49.6,95.1z M50.7,94.4c-0.1,0.2-0.2,0.2-0.3,0.3C50.4,94.6,50.6,94.4,50.7,94.4z"/>
		<linearGradient id="SVGID_5_" gradientUnits="userSpaceOnUse" x1="-3.2417" y1="41.7519" x2="198.1188" y2="202.9764">
			<stop  offset="0" style="stop-color:#E28226"/>
			<stop  offset="1" style="stop-color:#D44127"/>
		</linearGradient>
		<path class="st4" d="M75.3,91.3c0,0.2,0.2,0.3,0.3,0.5c0.1,0.5,0,0.9-0.2,1.5c-1.3,2.5-4.8,8.1-8.2,8.3c-3.5,0.1-4.9-1.6-4.9-5.4
			V96c-1.9,3.3-3.9,6-6.4,6c-1.1,0-2.6-1.5-3-2.5c-0.2-0.6-0.3-1.5-0.3-2.4c0-3.4,1.2-7.9,2.7-9.2c0.9-0.8,1.9-1,2.8-1
			c0.2,0.5,1.6,0.7,1.6,1.3c0,0.6-0.2,1.3-0.4,1.6c-0.2,0.5-2.7,8.8-1.6,8.8c0.1,0,0.1,0,0.2,0c1.8-1.9,5.6-9,6.6-10
			c0.4-0.3,0.8-0.5,1.3-0.6h0h0c0.4,0,2.7-0.1,2.3,1.3c-0.2,0.8-1.3,6-1.3,8.6c0,1.3,0.1,2.1,0.5,2.1c1.1,0,4.9-5.1,6.7-7.8
			C74.4,91.6,75.1,90.4,75.3,91.3z"/>
		<linearGradient id="SVGID_6_" gradientUnits="userSpaceOnUse" x1="2.9558" y1="34.0116" x2="204.3163" y2="195.2361">
			<stop  offset="0" style="stop-color:#E28226"/>
			<stop  offset="1" style="stop-color:#D44127"/>
		</linearGradient>
		<path class="st5" d="M80.1,101.9c-1.4-1.6,0.8-9.3-0.1-9.6c-2.6,2.9-3.7,5.6-5.3,8.8v0.1c-0.5,1.3-1.3,1.6-2.3,0.6
			c-1-0.4-1.6,0-1.8-0.9c0-3,0.8-8.2,1.5-11c0.3-1.4,1.6-1,2.6-1.4c0.9-0.8,2.1,0.1,1.9,1.1c-0.2,1.3-0.9,4.3-1.2,5.7
			c0.7-1.1,2.5-4.5,4.7-5.4c1.1-0.5,4-0.1,4.6,1.1c1.1,2.3-0.6,8-0.1,9c0.3,0.6,3.7-3.5,6.8-7.6c0.7-1.1,1.5,1,1.2,1.4
			c-1.8,3.2-6.6,9.1-9.9,9C81.5,102.9,80.9,102.8,80.1,101.9z"/>
	</g>
	<g>
		<linearGradient id="SVGID_7_" gradientUnits="userSpaceOnUse" x1="-29.6202" y1="74.6972" x2="171.7403" y2="235.9217">
			<stop  offset="0" style="stop-color:#E28226"/>
			<stop  offset="1" style="stop-color:#D44127"/>
		</linearGradient>
		<path class="st6" d="M38.3,121l-0.6,5h4.6v3.7h-5.2l-1,7h-4l1-7h-5.3l-1,7h-4l1-7h-4.6V126h5.2l0.7-5h-4.7v-3.8h5.2l1-7h4l-1,7
			h5.3l1-7h4l-1,7h4.6v3.8H38.3z M29.1,121l-0.7,5h5.3l0.7-5H29.1z"/>
		<linearGradient id="SVGID_8_" gradientUnits="userSpaceOnUse" x1="-18.1415" y1="60.3609" x2="183.2191" y2="221.5854">
			<stop  offset="0" style="stop-color:#E28226"/>
			<stop  offset="1" style="stop-color:#D44127"/>
		</linearGradient>
		<path class="st7" d="M58.9,114.3v22.5h-4.9v-22.5h-8v-4.6h20.9v4.6H58.9z"/>
		<linearGradient id="SVGID_9_" gradientUnits="userSpaceOnUse" x1="-15.0223" y1="56.4652" x2="186.3383" y2="217.6897">
			<stop  offset="0" style="stop-color:#E28226"/>
			<stop  offset="1" style="stop-color:#D44127"/>
		</linearGradient>
		<path class="st8" d="M76.9,121.2c-3.4,0-5.1,2.4-5.1,5.6v10H67v-19.8h4l0.4,3c0.9-2.3,3.3-3.2,5.6-3.2c0.5,0,1,0,1.5,0.1v4.6
			C78,121.2,77.5,121.2,76.9,121.2z"/>
		<linearGradient id="SVGID_10_" gradientUnits="userSpaceOnUse" x1="-8.9037" y1="48.8234" x2="192.4568" y2="210.0479">
			<stop  offset="0" style="stop-color:#E28226"/>
			<stop  offset="1" style="stop-color:#D44127"/>
		</linearGradient>
		<path class="st9" d="M96.6,137.1c-2.1,0-3.2-1.3-3.4-2.8c-0.9,1.6-3.2,3-6,3c-4.7,0-7.2-3-7.2-6.2c0-3.8,2.9-5.9,6.7-6.2l5.8-0.4
			v-1.2c0-1.9-0.6-3.1-3.4-3.1c-2.2,0-3.5,1-3.6,2.8H81c0.3-4.5,3.8-6.4,8.2-6.4c3.4,0,6.3,1.1,7.4,4c0.5,1.3,0.6,2.7,0.6,4v7.4
			c0,0.9,0.3,1.3,1.1,1.3c0.3,0,0.6-0.1,0.6-0.1v3.5C98.2,136.9,97.7,137.1,96.6,137.1z M92.6,128l-5,0.4c-1.4,0.1-2.9,1-2.9,2.6
			c0,1.5,1.3,2.5,2.8,2.5c3,0,5.1-1.6,5.1-4.5V128z"/>
		<linearGradient id="SVGID_11_" gradientUnits="userSpaceOnUse" x1="-0.1998" y1="37.9527" x2="201.1608" y2="199.1772">
			<stop  offset="0" style="stop-color:#E28226"/>
			<stop  offset="1" style="stop-color:#D44127"/>
		</linearGradient>
		<path class="st10" d="M117.6,134.1c-1.4,1.7-3.8,3.1-6.8,3.1c-3,0-5.5-1.4-6.9-3.1c-1.5-1.9-2.2-4.3-2.2-7.2
			c0-2.9,0.7-5.4,2.2-7.2c1.4-1.7,3.9-3.1,6.9-3.1c3,0,5.4,1.4,6.8,3.1c0.9,1.2,1.4,2.7,1.5,4.3h-4.7c0-0.7-0.3-1.3-0.6-1.8
			c-0.6-0.9-1.6-1.5-3.1-1.5c-1.3,0-2.2,0.5-2.9,1.2c-1.1,1.3-1.3,3.2-1.3,5c0,1.9,0.2,3.7,1.3,5c0.6,0.7,1.6,1.3,2.9,1.3
			c1.4,0,2.5-0.6,3.1-1.5c0.3-0.5,0.5-1.1,0.6-1.8h4.7C119.1,131.3,118.5,132.9,117.6,134.1z"/>
		<linearGradient id="SVGID_12_" gradientUnits="userSpaceOnUse" x1="8.1243" y1="27.5563" x2="209.4849" y2="188.7808">
			<stop  offset="0" style="stop-color:#E28226"/>
			<stop  offset="1" style="stop-color:#D44127"/>
		</linearGradient>
		<path class="st11" d="M130.3,137c-4,0-6-2.3-6-6.1v-10.1h-3.6v-3.9h3.6v-5l4.8-1.2v6.2h5v3.9h-5v9.6c0,1.5,0.7,2.2,2.2,2.2
			c1,0,1.8,0,3.1-0.2v4C133,136.8,131.7,137,130.3,137z"/>
		<linearGradient id="SVGID_13_" gradientUnits="userSpaceOnUse" x1="13.5121" y1="20.8273" x2="214.8726" y2="182.0518">
			<stop  offset="0" style="stop-color:#E28226"/>
			<stop  offset="1" style="stop-color:#D44127"/>
		</linearGradient>
		<path class="st12" d="M154.8,128.3h-13.3c0,1.5,0.5,3,1.4,3.9c0.7,0.6,1.6,1.2,2.9,1.2c1.4,0,2.2-0.3,2.9-1c0.4-0.4,0.8-1,1-1.7
			h4.6c-0.1,1.2-0.9,2.7-1.7,3.7c-1.7,2-4.2,2.8-6.7,2.8c-2.7,0-4.7-1-6.3-2.4c-2-1.9-3.1-4.7-3.1-7.9c0-3.2,1-6,2.9-7.9
			c1.5-1.5,3.6-2.5,6.3-2.5c2.9,0,5.6,1.2,7.2,3.7c1.4,2.2,1.8,4.4,1.7,6.9C154.8,127,154.8,127.9,154.8,128.3z M148.8,121.4
			c-0.6-0.7-1.6-1.1-3-1.1c-1.4,0-2.6,0.6-3.3,1.5c-0.7,0.9-1,1.8-1,3.1h8.6C150,123.4,149.6,122.2,148.8,121.4z"/>
		<linearGradient id="SVGID_14_" gradientUnits="userSpaceOnUse" x1="23.3634" y1="8.5236" x2="224.724" y2="169.748">
			<stop  offset="0" style="stop-color:#E28226"/>
			<stop  offset="1" style="stop-color:#D44127"/>
		</linearGradient>
		<path class="st13" d="M164.4,137.3c-2.6,0-4.4-0.8-5.8-2.2c-1.6-1.6-2.4-3.9-2.4-6.8h4.8c0,1.3,0.2,2.7,1,3.6c0.5,0.6,1.4,1,2.4,1
			c2.2,0,3.3-1.4,3.3-3.7v-19.5h4.9v19.1C172.6,134,169.6,137.3,164.4,137.3z"/>
		<linearGradient id="SVGID_15_" gradientUnits="userSpaceOnUse" x1="29.9121" y1="0.3446" x2="231.2726" y2="161.5691">
			<stop  offset="0" style="stop-color:#E28226"/>
			<stop  offset="1" style="stop-color:#D44127"/>
		</linearGradient>
		<path class="st14" d="M190.6,136.8l-0.3-2.6c-1,1.9-3.2,3.1-5.7,3.1c-4.2,0-6.9-2.9-6.9-7.1v-13.2h4.8v12.2c0,2.3,0.9,3.8,3.4,3.8
			c1.1,0,1.9-0.4,2.4-1c1.1-1.1,1.4-2.9,1.4-4.5v-10.5h4.8v19.8H190.6z"/>
		<linearGradient id="SVGID_16_" gradientUnits="userSpaceOnUse" x1="37.5079" y1="-9.1421" x2="238.8684" y2="152.0824">
			<stop  offset="0" style="stop-color:#E28226"/>
			<stop  offset="1" style="stop-color:#D44127"/>
		</linearGradient>
		<path class="st15" d="M214.2,135c-1.6,1.6-4.1,2.3-6.8,2.3c-2.5,0-4.8-0.7-6.4-2.3c-1.1-1.1-2.1-2.7-2.1-4.6h4.5
			c0,0.9,0.5,1.8,1.1,2.3c0.8,0.6,1.6,0.9,3,0.9c1.6,0,4-0.3,4-2.5c0-1.1-0.8-1.9-2-2.1c-1.8-0.3-3.7-0.4-5.5-0.8
			c-2.7-0.6-4.5-2.8-4.5-5.3c0-2,0.8-3.4,2-4.5c1.4-1.3,3.5-2,6-2c2.4,0,4.8,0.8,6.2,2.3c1.1,1.1,1.8,2.6,1.8,4.1h-4.5
			c0-0.8-0.3-1.4-0.8-1.9c-0.6-0.6-1.6-0.9-2.6-0.9c-0.7,0-1.3,0-2.1,0.3c-0.8,0.3-1.5,1.1-1.5,2.1c0,1.4,1.2,1.8,2.3,2
			c1.8,0.2,2.3,0.3,4.2,0.6c3.1,0.5,5.4,2.5,5.4,5.6C215.9,132.5,215.2,133.9,214.2,135z"/>
		<linearGradient id="SVGID_17_" gradientUnits="userSpaceOnUse" x1="46.0131" y1="-19.7646" x2="247.3736" y2="141.4599">
			<stop  offset="0" style="stop-color:#E28226"/>
			<stop  offset="1" style="stop-color:#D44127"/>
		</linearGradient>
		<path class="st16" d="M227.3,137c-4,0-6-2.3-6-6.1v-10.1h-3.6v-3.9h3.6v-5l4.8-1.2v6.2h5v3.9h-5v9.6c0,1.5,0.7,2.2,2.2,2.2
			c1,0,1.8,0,3.1-0.2v4C230,136.8,228.7,137,227.3,137z"/>
	</g>
</g>
</svg>
