<?xml version="1.0" encoding="utf-8"?>
<!-- Generator: Adobe Illustrator 21.0.0, SVG Export Plug-In . SVG Version: 6.00 Build 0)  -->
<svg version="1.1" id="Layer_1" xmlns="http://www.w3.org/2000/svg" xmlns:xlink="http://www.w3.org/1999/xlink" x="0px" y="0px"
	 viewBox="0 0 246.9 144.9" style="enable-background:new 0 0 246.9 144.9;" xml:space="preserve">
<style type="text/css">
	.st0{fill:url(#SVGID_1_);}
	.st1{fill:url(#SVGID_2_);}
	.st2{fill:url(#SVGID_3_);}
	.st3{fill:url(#SVGID_4_);}
	.st4{fill:url(#SVGID_5_);}
	.st5{fill:url(#SVGID_6_);}
	.st6{fill:url(#SVGID_7_);}
	.st7{fill:url(#SVGID_8_);}
	.st8{fill:url(#SVGID_9_);}
	.st9{fill:url(#SVGID_10_);}
	.st10{fill:url(#SVGID_11_);}
	.st11{fill:url(#SVGID_12_);}
	.st12{fill:url(#SVGID_13_);}
	.st13{fill:url(#SVGID_14_);}
	.st14{fill:url(#SVGID_15_);}
	.st15{fill:url(#SVGID_16_);}
	.st16{fill:url(#SVGID_17_);}
</style>
<g>
	
		<linearGradient id="SVGID_1_" gradientUnits="userSpaceOnUse" x1="-6.6733" y1="35.8217" x2="223.0767" y2="171.0717" gradientTransform="matrix(1 0 0 -1 0 146.55)">
		<stop  offset="0" style="stop-color:#E28226"/>
		<stop  offset="1" style="stop-color:#D44127"/>
	</linearGradient>
	<path class="st0" d="M109.6,77.6c-0.4,0.5-1.1,0.7-1.7,0.5c-0.5-0.2-0.7-0.7-0.8-0.9c-0.1-0.2-0.1-0.5,0-0.8l3.3-4.7
		c0.3-0.3,0.6-0.4,0.8-0.4c0.1,0,0.1,0,0.2,0c0.2,0,0.6,0.1,0.9,0.3c0.6,0.5,0.7,1.3,0.3,1.9L109.6,77.6L109.6,77.6z M99.4,75.4
		c-0.5-0.3-0.9-0.7-1-1.3c-0.1-0.5,0-0.9,0.2-1.3l6.2-9.2c0.3-0.4,0.8-0.7,1.3-0.8c0.1,0,0.2,0,0.3,0c0.4,0,0.9,0.2,1.2,0.4
		c0.8,0.6,1,1.8,0.4,2.7l-1.8,2.7c0,0.1-0.1,0.1-0.1,0.2l-3,4.3c-0.1,0.1-0.2,0.3-0.2,0.4l-0.9,1.3C101.4,75.7,100.3,75.9,99.4,75.4
		L99.4,75.4z M90.8,71.5c-0.9-0.6-1.1-1.9-0.5-2.7l0.8-1.2c0.1-0.1,0.1-0.1,0.2-0.2c1.2-1.8,2.6-3.8,3.8-5.6c0,0,0-0.1,0.1-0.1
		l3.2-4.7c0.4-0.6,1-0.9,1.6-0.9c0.4,0,0.7,0.1,1.1,0.3c0.5,0.3,0.8,0.7,0.9,1.3c0.1,0.5,0,1.1-0.3,1.5l-1.1,1.6l-0.1,0.1l-6.1,8.8
		c-0.1,0.2-0.2,0.3-0.3,0.5L93.6,71c-0.3,0.4-0.8,0.7-1.3,0.8C91.8,71.9,91.3,71.8,90.8,71.5L90.8,71.5z M83.8,62.2l3.9-5.5
		c0.4-0.5,0.9-0.8,1.6-0.8c0.4,0,0.7,0.1,1.1,0.3c0.4,0.3,0.8,0.7,0.9,1.2s0,1-0.3,1.4l-4,5.7c-0.3,0.4-0.7,0.6-1.1,0.7
		c-0.5,0.1-1,0-1.6-0.4C83.4,64.2,83.2,63,83.8,62.2L83.8,62.2z M182.7,39.2c-0.4-1.4-1.8-2.2-3.1-1.8l-15.3,4.1
		c-0.5,0.1-0.9,0.4-1.2,0.7l-8.7,9.4l-0.1-0.1l-31.8-20.6c-1.8-1.2-4.2-1.3-6.1-0.3l-14.8,7.7c-0.3,0.2-0.7,0.1-1-0.1
		c-0.3-0.2-0.3-0.5-0.4-0.6c0-0.1,0-0.4,0.2-0.7l7-9.1c1.1-1.4,2.7-2.4,4.5-2.7l8.2-1.5c4.4-0.8,8.9-0.8,13.4,0.2l8.7,1.8
		c1.2,0.2,2.4,0.1,3.5-0.3c0.2-0.1,0.4-0.2,0.5-0.3l17.3-12.5c1.1-0.8,1.4-2.4,0.6-3.6c-0.8-1.1-2.4-1.4-3.6-0.6l-16.9,12.3
		c-0.1,0-0.2,0-0.3,0l-8.7-1.8c-5.1-1.1-10.2-1.1-15.3-0.2l-8.2,1.5c-2.3,0.4-4.3,1.4-6,2.9l-7.3-1.2h-0.1l-17-13.4
		c-1.1-0.9-2.7-0.7-3.6,0.4s-0.7,2.7,0.4,3.6L94.3,26c0.1,0.1,0.3,0.2,0.4,0.3c0.6,0.3,1.2,0.5,1.8,0.6l4.3,0.7l-4.7,6.2
		c-1,1.3-1.4,2.9-1.2,4.5c0.2,1.6,1.1,3,2.4,4c1.9,1.4,4.4,1.6,6.5,0.5l14.8-7.7c0.3-0.2,0.7-0.1,0.9,0l31.8,20.6
		c0.6,0.4,1,1,1.1,1.6c0.1,0.7,0,1.4-0.4,2c-0.8,1.2-2.3,1.5-3.5,0.8l-1.8-1.1l-0.5-0.3l-14.9-8.9c-1.2-0.7-2.8-0.3-3.5,0.9
		s-0.3,2.8,0.9,3.5l13.8,8.2l1.1,0.7l0.5,0.3c0.5,0.3,0.6,0.7,0.7,0.9c0.1,0.2,0.1,0.7-0.2,1.1c-0.9,1.3-2.7,1.8-4.1,1L127,59.1
		c-1.2-0.7-2.8-0.2-3.5,1s-0.2,2.8,1,3.5l9.7,5.3l2.4,1.5c0.4,0.3,0.6,0.7,0.6,0.9s0.1,0.6-0.2,1l-0.1,0.1c-0.8,1.2-2.3,1.6-3.6,1
		L123,68.2c-1.3-0.6-2.8-0.1-3.4,1.1c-0.6,1.3-0.1,2.8,1.1,3.4l7.8,3.9c-1.5,0.7-3.1,0.9-4.8,0.7l-7-1.1l0.1-0.1
		c1.9-2.8,1.4-6.6-1.2-8.8c-0.7-0.5-1.4-0.9-2.2-1.2c0.5-2.5-0.4-5.3-2.5-7c-1.1-0.9-2.4-1.4-3.7-1.5c0-0.4,0-0.8-0.1-1.2
		c-0.4-1.9-1.5-3.5-3.1-4.6c-3-1.9-7-1.3-9.2,1.3c-0.5-0.6-1.1-1.1-1.8-1.6c-2.6-1.6-5.9-1.3-8.1,0.6l-7-9.3
		c-0.3-0.4-0.8-0.7-1.3-0.9l-15-4.8c-1.3-0.4-2.8,0.3-3.2,1.7c-0.4,1.3,0.3,2.8,1.7,3.2l14.3,4.5l7.4,9.7l-1.9,2.7
		c-2.2,3.2-1.5,7.5,1.8,9.8c1,0.7,2.2,1.2,3.5,1.3c0.1,2.1,1.2,4.1,3,5.3c1.2,0.9,2.6,1.3,4.1,1.3c0.4,0,0.9,0,1.3-0.1
		c0.2,0,0.4-0.1,0.6-0.2c0.6,1.4,1.7,2.5,3.1,3.3c1.1,0.6,2.2,0.9,3.4,0.9c0.9,0,1.8-0.2,2.7-0.5c0.7,1.1,1.7,2,3,2.5
		c0.8,0.3,1.6,0.5,2.5,0.5c1.9,0,3.7-0.8,4.9-2.3l9.6,1.5c0.7,0.1,1.4,0.2,2.1,0.2c3.5,0,6.8-1.3,9.3-3.7c0.2,0,0.3,0,0.5,0
		c2.6,0,5.1-1.3,6.6-3.6c0.7-1,1.1-2.1,1.2-3.3c2.6-0.1,5-1.4,6.5-3.7c0.5-0.8,0.9-1.7,1-2.7c2.5,0,5-1.2,6.4-3.5
		c1.1-1.7,1.5-3.8,1.1-5.8c0-0.2-0.1-0.4-0.2-0.5l8.9-9.6l14.6-3.9C182.3,41.9,183.1,40.5,182.7,39.2L182.7,39.2z"/>
	<g>
		<linearGradient id="SVGID_2_" gradientUnits="userSpaceOnUse" x1="-31.6838" y1="78.3072" x2="198.0663" y2="213.5571">
			<stop  offset="0" style="stop-color:#E28226"/>
			<stop  offset="1" style="stop-color:#D44127"/>
		</linearGradient>
		<path class="st1" d="M23.2,95.2c0,3.1-2.5,5.4-5.5,5.7c0,0,0,0,0,0v0c-0.1,0-0.2,0-0.4,0c-0.4,0-0.4,0-0.6-0.1c0,0,0,0,0,0
			c0,0-0.3,0-0.4-0.1l0.1-0.1c-0.1,0-0.3,0-0.3,0v0c-0.1,0-0.1,0-0.2,0c-0.8,5.1-1.5,11.5-2,17c0,1-0.1,1.7-1.1,2.4v0
			c0,0-0.1-0.1-0.1-0.3c-0.3,0.1-0.2,0.4-0.3,0.6c-0.1,0,0-0.2-0.1-0.3c0,0,0,0.1-0.1,0.1c0.1-0.1,0-0.1,0.1-0.3l-0.1,0.1v-0.1
			c0,0-0.1,0-0.1,0v0c-0.2,0.2-0.1,0.5-0.2,0.5c0,0,0-0.5,0-0.5c0,0,0,0,0,0c0,0,0,0-0.1,0h0h0c0,0.1,0,0.2,0,0.3c0,0,0,0,0,0.1
			c0,0.1-0.1,0.1-0.1,0.3c0,0,0-0.1,0-0.1c0-0.1,0-0.1,0-0.2c0,0,0-0.1,0-0.2c0,0,0,0-0.1,0c0,0,0.1,0,0.1,0c0,0,0,0-0.1,0v0v0h0.1
			c0,0.1,0,0.1-0.1,0.1v0c0,0.1-0.1,0.2-0.1,0.4c-0.1-0.1-0.3-0.2-0.3-0.4c-0.1,0.1-0.2,0-0.2,0.3c0,0-0.2-0.1-0.2-0.1h0
			c0,0,0-0.1,0-0.1c0,0-0.1,0.1-0.1,0.2c0-0.1,0-0.3-0.2-0.3c0,0.1,0,0.2,0,0.3c0,0,0,0.1-0.2,0.1c-0.1,0,0-0.1-0.1-0.1v0.3
			c0,0-0.1-0.1-0.1-0.1c0,0,0,0,0,0.1c0,0,0,0.1,0,0.2c0,0.2-0.1,0.2-0.1,0.2c-0.2,0-0.7-0.4-0.7-0.7c0-4.7,0.5-9.2,1.2-13.9
			c0.6-5.1,1.2-11.1,2-16.5c0.1-1.1,1.3-1.6,1.7-1.6c0.8,0,3.1,0.2,3.1,1.3C20,90.1,23.2,92.1,23.2,95.2z M12.5,120.1
			c0,0,0,0.1,0,0.2c0,0-0.1-0.1-0.1-0.2H12.5z M20.1,94.7c0-1.3-1.3-2.6-3-3c-0.2,2.6-0.9,6.3-0.9,7.4C18.8,99,20.1,96.6,20.1,94.7z
			 M17.3,100.7c0,0-0.1,0-0.2,0C17.2,100.7,17.3,100.7,17.3,100.7z"/>
		<linearGradient id="SVGID_3_" gradientUnits="userSpaceOnUse" x1="-23.1754" y1="63.854" x2="206.5746" y2="199.104">
			<stop  offset="0" style="stop-color:#E28226"/>
			<stop  offset="1" style="stop-color:#D44127"/>
		</linearGradient>
		<path class="st2" d="M38.7,90.2l-0.5,0.2l0.3,0.1l0,0.1c-0.9,0-1.9,0.4-2.5,0.7c0.1-0.4,0,0.2-0.4,0.2c0,0-0.6,0.6-0.6,0.3
			c-0.3,0.3-0.8,0.4-0.9,0.5c-0.1,0.1,0,0.2-0.2,0.2c0,0,0,0-0.1,0c-0.7,0.5-1.6,0.6-2.3,0.6c0-0.1,0-0.2,0-0.2l-0.1,0
			c0.3,2.2,0.5,3.6,0,5.7c0,0.2-0.1,1.5-0.6,1.9c-0.6,1.1-0.2,1.7-2.8,3c-0.3,0.1-0.8,0.1-1.2,0c-0.6,0-1.6-0.6-2-1.5
			c-0.8-1.8-0.7-4.1-0.4-5.8c0.8-3.6,3.4-9,7.5-8.6c0.5,0,3.2,0.4,2.4,1.2c-0.4,0.1-0.7,0-1,0c-2.7,1.2-4.6,4.7-5.4,8.6
			c-0.2,1.2-0.6,2.8-0.2,4.3c1.8-2.6,2.7-5.4,2.8-8.5v-0.4c0-0.1,0.1-0.2,0.1-0.4c0-0.1-0.2-0.2-0.2-0.3c-0.1-0.3,0.4-0.4,0.6-0.1
			c1-0.2,1.9-0.6,2.9-1c2-0.9,2.5-0.9,4.7-1.1v0l-1,0.3L38.7,90.2L38.7,90.2z M36,90.6c0,0,0.4,0.1,0.3-0.1
			C36.1,90.5,36,90.6,36,90.6z M36.2,90.9c0.2,0,0.2,0,0.1-0.1C36.4,90.8,36.2,90.8,36.2,90.9z M36.6,90.6c0,0-0.1,0-0.1,0.2
			C36.6,90.7,36.6,90.7,36.6,90.6z M38,90.5c-0.4-0.1-0.9,0-1.3,0.1l0,0.1C37.2,90.6,37.6,90.5,38,90.5z M37.4,90.1
			c-0.1,0.1-0.2,0-0.3,0c0,0.1-0.1,0.1-0.1,0.1c0.1,0,0.3,0,0.4,0C37.5,90.2,37.6,90.1,37.4,90.1z"/>
		<linearGradient id="SVGID_4_" gradientUnits="userSpaceOnUse" x1="-20.5813" y1="59.4474" x2="209.1687" y2="194.6974">
			<stop  offset="0" style="stop-color:#E28226"/>
			<stop  offset="1" style="stop-color:#D44127"/>
		</linearGradient>
		<path class="st3" d="M45.9,87.5c-0.4,0.1-0.4,0.4-0.8,0.6c0.2,0.1-0.7,0.5-0.8,0.8c-0.2,0.1-0.5,0.2-0.6,0.5
			c-0.2,0.1-0.2,0.4-0.3,0.5c-2.3,2.3-3.7,5.1-4.1,8.2c-0.3,1.9-0.5,3.6-0.7,5.1c-0.1,0.1-0.1-0.4-0.2-0.3c-0.1,0.2-0.2,0.4-0.4,0.5
			c0,0.1-0.2,0-0.3,0c0,0,0,0.1-0.1,0.1c0-0.2-0.1-0.1-0.1-0.2c-0.1,0-0.1,0.1-0.1,0.1c0-0.1,0-0.1,0-0.1c0,0-0.1,0-0.1,0v-0.3
			c-0.1,0.1-0.1,0.4-0.2,0.4l-0.1,0.1v-0.1c0,0-0.1,0.1-0.2,0.3v-0.2c-0.2,0.1-0.1,0.3-0.2,0.3c-0.1,0-0.2,0.1-0.3,0.2h-0.1
			c-0.1,0.1-0.2,0.1-0.2,0.3c-0.2,0-0.5,0.2-0.5,0.3c-0.1-0.1-0.1-0.1-0.4-0.1l-0.2-0.2c-0.1-0.2-0.2-0.2-0.2-0.4
			c0-0.1-0.1-0.1-0.2-0.3c0,0,0-0.1-0.1-0.3c0.2-5.3,0.6-12.6,2.5-16.3c0.2-0.4,0.9-1.5,1.3-1.5c0.3-0.2,0.8-0.6,1.2-0.6
			c1.7-0.4,1.9,0.6,1.9,1.4c0,0.5-0.4,2.4-0.6,2.8c-0.1,0.6-0.2,1-0.3,1.6c1.2-1.4,4.3-4.8,6.4-4C46.5,87.1,46.1,87.3,45.9,87.5z"/>
		<linearGradient id="SVGID_5_" gradientUnits="userSpaceOnUse" x1="-15.1597" y1="50.2377" x2="214.5903" y2="185.4877">
			<stop  offset="0" style="stop-color:#E28226"/>
			<stop  offset="1" style="stop-color:#D44127"/>
		</linearGradient>
		<path class="st4" d="M73.5,91.7c0,0.2,0.2,0.3,0.3,0.5c0.1,0.5,0,0.9-0.2,1.4c-1.2,2.4-4.7,7.9-8,8.1c-3.4,0.1-4.8-1.5-4.8-5.2
			v-0.2c-1.8,3.2-3.8,5.8-6.2,5.8c-1,0-2.5-1.4-2.9-2.4c-0.2-0.6-0.3-1.4-0.3-2.3c0-3.3,1.2-7.6,2.6-8.9c0.8-0.8,1.8-1,2.7-1
			c0.2,0.5,1.6,0.7,1.6,1.2c0,0.6-0.2,1.2-0.4,1.5c-0.2,0.5-2.6,8.5-1.5,8.5c0.1,0,0.1,0,0.2,0c1.7-1.9,5.4-8.8,6.4-9.7
			c0.4-0.3,0.8-0.5,1.2-0.6h0h0c0.4,0,2.6-0.1,2.2,1.2c-0.2,0.8-1.3,5.8-1.3,8.4c0,1.3,0.1,2.1,0.5,2.1c1.1,0,4.7-5,6.5-7.6
			C72.6,92,73.3,90.9,73.5,91.7z"/>
		<linearGradient id="SVGID_6_" gradientUnits="userSpaceOnUse" x1="-10.8094" y1="42.8478" x2="218.9406" y2="178.0978">
			<stop  offset="0" style="stop-color:#E28226"/>
			<stop  offset="1" style="stop-color:#D44127"/>
		</linearGradient>
		<path class="st5" d="M79.9,101.9c-1.3-1.5,0.8-9-0.1-9.3c-2.5,2.8-3.5,5.4-5.1,8.5v0.1c-0.4,1.2-1.3,1.6-2.2,0.6
			c-0.9-0.4-1.6,0-1.8-0.8c0-2.9,0.8-7.9,1.4-10.7c0.3-1.3,1.5-1,2.5-1.3c0.8-0.8,2,0.1,1.9,1c-0.2,1.2-0.8,4.1-1.2,5.5
			c0.7-1.1,2.4-4.4,4.5-5.2c1.1-0.4,3.9-0.1,4.4,1.1c1.1,2.3-0.6,7.8-0.1,8.7c0.3,0.6,3.6-3.4,6.6-7.4c0.7-1,1.4,0.9,1.2,1.4
			c-1.7,3.1-6.4,8.8-9.6,8.8C81.4,103,80.7,102.8,79.9,101.9z"/>
	</g>
	<g>
		<linearGradient id="SVGID_7_" gradientUnits="userSpaceOnUse" x1="-35.1021" y1="84.114" x2="194.6479" y2="219.364">
			<stop  offset="0" style="stop-color:#E28226"/>
			<stop  offset="1" style="stop-color:#D44127"/>
		</linearGradient>
		<path class="st6" d="M38.5,120.8l-0.7,5h4.7v3.8h-5.2l-1,7.1h-4l1-7.1h-5.3l-1,7.1h-4l1-7.1h-4.7v-3.8h5.2l0.7-5h-4.7V117h5.2l1-7
			h4l-1,7h5.3l1-7h4l-1,7h4.7v3.8H38.5z M29.2,120.8l-0.7,5h5.3l0.7-5H29.2z"/>
		<linearGradient id="SVGID_8_" gradientUnits="userSpaceOnUse" x1="-27.4318" y1="71.0843" x2="202.3183" y2="206.3343">
			<stop  offset="0" style="stop-color:#E28226"/>
			<stop  offset="1" style="stop-color:#D44127"/>
		</linearGradient>
		<path class="st7" d="M59.3,114v22.7h-5V114h-8.1v-4.6h21.1v4.6H59.3z"/>
		<linearGradient id="SVGID_9_" gradientUnits="userSpaceOnUse" x1="-25.7681" y1="68.2581" x2="203.9819" y2="203.5081">
			<stop  offset="0" style="stop-color:#E28226"/>
			<stop  offset="1" style="stop-color:#D44127"/>
		</linearGradient>
		<path class="st8" d="M77.5,120.9c-3.4,0-5.2,2.4-5.2,5.7v10.1h-4.9v-20h4.1l0.4,3c0.9-2.3,3.3-3.3,5.7-3.3c0.5,0,1,0,1.5,0.1v4.6
			C78.7,121,78.1,120.9,77.5,120.9z"/>
		<linearGradient id="SVGID_10_" gradientUnits="userSpaceOnUse" x1="-21.7099" y1="61.3645" x2="208.0401" y2="196.6145">
			<stop  offset="0" style="stop-color:#E28226"/>
			<stop  offset="1" style="stop-color:#D44127"/>
		</linearGradient>
		<path class="st9" d="M97.4,137c-2.1,0-3.2-1.3-3.4-2.8c-0.9,1.6-3.2,3-6.1,3c-4.8,0-7.2-3-7.2-6.3c0-3.8,3-6,6.8-6.3l5.9-0.4V123
			c0-1.9-0.7-3.2-3.4-3.2c-2.2,0-3.5,1-3.7,2.9h-4.7c0.3-4.5,3.9-6.5,8.3-6.5c3.4,0,6.4,1.1,7.5,4.1c0.5,1.3,0.6,2.7,0.6,4v7.4
			c0,0.9,0.3,1.3,1.1,1.3c0.3,0,0.6-0.1,0.6-0.1v3.5C99,136.8,98.6,137,97.4,137z M93.4,127.8l-5.1,0.4c-1.5,0.1-2.9,1-2.9,2.6
			c0,1.5,1.3,2.5,2.8,2.5c3,0,5.1-1.6,5.1-4.6V127.8z"/>
		<linearGradient id="SVGID_11_" gradientUnits="userSpaceOnUse" x1="-15.2301" y1="50.3572" x2="214.5199" y2="185.6072">
			<stop  offset="0" style="stop-color:#E28226"/>
			<stop  offset="1" style="stop-color:#D44127"/>
		</linearGradient>
		<path class="st10" d="M111,137c-4,0-6-2.3-6-6.2v-10.2h-3.7v-4h3.7v-5.1l4.8-1.2v6.3h5v4h-5v9.7c0,1.5,0.7,2.2,2.2,2.2
			c1,0,1.8,0,3.1-0.2v4C113.8,136.8,112.4,137,111,137z"/>
		<linearGradient id="SVGID_12_" gradientUnits="userSpaceOnUse" x1="-12.0491" y1="44.9537" x2="217.7009" y2="180.2037">
			<stop  offset="0" style="stop-color:#E28226"/>
			<stop  offset="1" style="stop-color:#D44127"/>
		</linearGradient>
		<path class="st11" d="M133.8,134.1c-1.4,1.7-4,3.1-7,3.1c-3,0-5.6-1.4-7-3.1c-1.5-1.9-2.3-4-2.3-7.4c0-3.4,0.8-5.5,2.3-7.4
			c1.4-1.7,4-3.1,7-3.1c3,0,5.6,1.4,7,3.1c1.5,1.9,2.3,4,2.3,7.4C136.2,130.1,135.3,132.2,133.8,134.1z M129.8,121.6
			c-0.7-0.7-1.7-1.3-3-1.3s-2.4,0.6-3,1.3c-1.2,1.3-1.4,3.2-1.4,5c0,1.9,0.3,3.8,1.4,5c0.7,0.7,1.7,1.3,3,1.3s2.4-0.6,3-1.3
			c1.2-1.3,1.4-3.2,1.4-5C131.3,124.8,131,122.9,129.8,121.6z"/>
		<linearGradient id="SVGID_13_" gradientUnits="userSpaceOnUse" x1="-4.8989" y1="32.8076" x2="224.8511" y2="168.0576">
			<stop  offset="0" style="stop-color:#E28226"/>
			<stop  offset="1" style="stop-color:#D44127"/>
		</linearGradient>
		<path class="st12" d="M146,137.2c-2.6,0-4.5-0.8-5.8-2.2c-1.6-1.7-2.4-3.9-2.4-6.9h4.8c0,1.3,0.2,2.7,1,3.7c0.5,0.6,1.4,1,2.4,1
			c2.2,0,3.3-1.5,3.3-3.7v-19.7h5v19.3C154.2,133.9,151.2,137.2,146,137.2z"/>
		<linearGradient id="SVGID_14_" gradientUnits="userSpaceOnUse" x1="-0.969" y1="26.1317" x2="228.7811" y2="161.3817">
			<stop  offset="0" style="stop-color:#E28226"/>
			<stop  offset="1" style="stop-color:#D44127"/>
		</linearGradient>
		<path class="st13" d="M172.4,136.7l-0.3-2.6c-1,2-3.2,3.1-5.7,3.1c-4.3,0-6.9-2.9-6.9-7.2v-13.4h4.8V129c0,2.3,0.9,3.8,3.5,3.8
			c1.1,0,1.9-0.4,2.5-1c1.2-1.1,1.5-2.9,1.5-4.5v-10.6h4.8v20H172.4z"/>
		<linearGradient id="SVGID_15_" gradientUnits="userSpaceOnUse" x1="4.0521" y1="17.6025" x2="233.8021" y2="152.8524">
			<stop  offset="0" style="stop-color:#E28226"/>
			<stop  offset="1" style="stop-color:#D44127"/>
		</linearGradient>
		<path class="st14" d="M196.2,134.9c-1.6,1.6-4.1,2.3-6.9,2.3c-2.5,0-4.8-0.7-6.5-2.3c-1.2-1.1-2.1-2.8-2.1-4.7h4.5
			c0,0.9,0.5,1.8,1.1,2.3c0.8,0.6,1.7,0.9,3,0.9c1.6,0,4.1-0.3,4.1-2.5c0-1.2-0.8-1.9-2-2.1c-1.8-0.3-3.8-0.4-5.5-0.8
			c-2.7-0.6-4.6-2.8-4.6-5.4c0-2,0.8-3.5,2-4.5c1.5-1.3,3.6-2,6.1-2c2.4,0,4.8,0.8,6.3,2.3c1.1,1.2,1.8,2.7,1.8,4.1H193
			c0-0.8-0.3-1.4-0.8-1.9c-0.6-0.6-1.6-0.9-2.6-0.9c-0.7,0-1.3,0-2.1,0.3c-0.8,0.3-1.5,1.1-1.5,2.1c0,1.4,1.2,1.8,2.3,2
			c1.8,0.2,2.3,0.3,4.3,0.6c3.2,0.5,5.5,2.5,5.5,5.7C198,132.4,197.3,133.9,196.2,134.9z"/>
		<linearGradient id="SVGID_16_" gradientUnits="userSpaceOnUse" x1="10.1137" y1="7.3055" x2="239.8637" y2="142.5555">
			<stop  offset="0" style="stop-color:#E28226"/>
			<stop  offset="1" style="stop-color:#D44127"/>
		</linearGradient>
		<path class="st15" d="M209.5,137c-4,0-6-2.3-6-6.2v-10.2h-3.7v-4h3.7v-5.1l4.8-1.2v6.3h5v4h-5v9.7c0,1.5,0.7,2.2,2.2,2.2
			c1,0,1.8,0,3.1-0.2v4C212.2,136.8,210.9,137,209.5,137z"/>
		<linearGradient id="SVGID_17_" gradientUnits="userSpaceOnUse" x1="13.2944" y1="1.9025" x2="243.0444" y2="137.1525">
			<stop  offset="0" style="stop-color:#E28226"/>
			<stop  offset="1" style="stop-color:#D44127"/>
		</linearGradient>
		<path class="st16" d="M232.3,134.1c-1.4,1.7-4,3.1-7,3.1c-3,0-5.6-1.4-7-3.1c-1.5-1.9-2.3-4-2.3-7.4c0-3.4,0.8-5.5,2.3-7.4
			c1.4-1.7,4-3.1,7-3.1c3,0,5.6,1.4,7,3.1c1.5,1.9,2.3,4,2.3,7.4C234.6,130.1,233.8,132.2,232.3,134.1z M228.3,121.6
			c-0.7-0.7-1.7-1.3-3-1.3s-2.4,0.6-3,1.3c-1.2,1.3-1.4,3.2-1.4,5c0,1.9,0.3,3.8,1.4,5c0.7,0.7,1.7,1.3,3,1.3s2.4-0.6,3-1.3
			c1.2-1.3,1.4-3.2,1.4-5C229.7,124.8,229.5,122.9,228.3,121.6z"/>
	</g>
</g>
</svg>
