<svg fill="#FFFFFF" xmlns="http://www.w3.org/2000/svg" xmlns:xlink="http://www.w3.org/1999/xlink" viewBox="0 0 60 60" version="1.1" x="0px" y="0px"><title>65 -Vegetable- (Outline)</title><desc>Created with Sketch.</desc><g stroke="none" stroke-width="1" fill="none" fill-rule="evenodd"><g transform="translate(-600.000000, -1122.000000)"><g transform="translate(601.000000, 1123.000000)"><path d="M4.7071,24.7073 C4.3161,25.0983 3.6831,25.0983 3.2931,24.7073 C2.9021,24.3163 2.9021,23.6833 3.2931,23.2933 C3.6831,22.9023 4.3161,22.9023 4.7071,23.2933 C5.0981,23.6833 5.0981,24.3163 4.7071,24.7073" fill="#FFFFFF"></path><path d="M4.7071,32.7073 C4.3161,33.0983 3.6831,33.0983 3.2931,32.7073 C2.9021,32.3163 2.9021,31.6833 3.2931,31.2933 C3.6831,30.9023 4.3161,30.9023 4.7071,31.2933 C5.0981,31.6833 5.0981,32.3163 4.7071,32.7073" fill="#FFFFFF"></path><path d="M54.7071,32.7073 C54.3161,33.0983 53.6831,33.0983 53.2931,32.7073 C52.9021,32.3163 52.9021,31.6833 53.2931,31.2933 C53.6831,30.9023 54.3161,30.9023 54.7071,31.2933 C55.0981,31.6833 55.0981,32.3163 54.7071,32.7073" fill="#FFFFFF"></path><path d="M54.7071,24.7073 C54.3161,25.0983 53.6831,25.0983 53.2931,24.7073 C52.9021,24.3163 52.9021,23.6833 53.2931,23.2933 C53.6831,22.9023 54.3161,22.9023 54.7071,23.2933 C55.0981,23.6833 55.0981,24.3163 54.7071,24.7073" fill="#FFFFFF"></path><polygon stroke="#FFFFFF" stroke-width="2" stroke-linecap="round" stroke-linejoin="round" points="0 36 58 36 58 28 0 28"></polygon><polygon stroke="#FFFFFF" stroke-width="2" stroke-linecap="round" stroke-linejoin="round" points="0 28 58 28 58 20 0 20"></polygon><polygon stroke="#FFFFFF" stroke-width="2" stroke-linecap="round" stroke-linejoin="round" points="0 20 8 20 8 14 0 14"></polygon><polygon stroke="#FFFFFF" stroke-width="2" stroke-linecap="round" stroke-linejoin="round" points="50 20 58 20 58 14 50 14"></polygon><polygon stroke="#FFFFFF" stroke-width="2" stroke-linecap="round" stroke-linejoin="round" points="10 42 48 42 48 36 10 36"></polygon><polygon stroke="#FFFFFF" stroke-width="2" stroke-linecap="round" stroke-linejoin="round" points="45 58.0002 39 58.0002 29 42.0002 35 42.0002"></polygon><polygon stroke="#FFFFFF" stroke-width="2" stroke-linecap="round" stroke-linejoin="round" points="13 58.0002 19 58.0002 29 42.0002 23 42.0002"></polygon><path d="M44.6067,8.7583 L43.1927,10.1723" stroke="#FFFFFF" stroke-width="2" stroke-linecap="round" stroke-linejoin="round"></path><path d="M41.7783,14.4151 L40.3643,15.8291" stroke="#FFFFFF" stroke-width="2" stroke-linecap="round" stroke-linejoin="round"></path><path d="M38.9498,10.1725 L37.5358,11.5865" stroke="#FFFFFF" stroke-width="2" stroke-linecap="round" stroke-linejoin="round"></path><path d="M36.8285,16.5364 L35.6715,17.6934" stroke="#FFFFFF" stroke-width="2" stroke-linecap="round" stroke-linejoin="round"></path><path d="M30.6646,20.0002 C32.1616,16.0862 34.1456,9.9332 33.0606,4.7482 C33.0606,4.7482 31.5106,9.9052 28.3966,12.8582 C26.3826,14.7682 24.3696,16.5132 23.3366,20.0002 L30.6646,20.0002 L30.6646,20.0002 Z" stroke="#FFFFFF" stroke-width="2" stroke-linecap="round" stroke-linejoin="round"></path><path d="M42.2455,20.0002 C47.8145,13.4562 50.4475,7.0562 48.1955,4.8042 C45.9665,2.5762 39.6735,5.1302 33.1985,10.5842 C32.7725,14.0802 31.6215,17.4972 30.6655,20.0002 L42.2455,20.0002 L42.2455,20.0002 Z" stroke="#FFFFFF" stroke-width="2" stroke-linecap="round" stroke-linejoin="round"></path><path d="M24,0.0002 C23,1.0002 21,4.0312 21,6.0002" stroke="#FFFFFF" stroke-width="2" stroke-linecap="round" stroke-linejoin="round"></path><path d="M21,6.0002 C21,5.0002 19.896,3.0422 19,2.0002" stroke="#FFFFFF" stroke-width="2" stroke-linecap="round" stroke-linejoin="round"></path><path d="M28.3971,12.8579 C28.5921,12.6729 28.7801,12.4799 28.9631,12.2799 C28.5931,8.3039 25.1721,5.9999 21.0001,5.9999 C16.5821,5.9999 13.0001,8.5819 13.0001,12.9999 C13.0001,15.0169 13.7521,17.6879 14.9831,19.9999 L23.3361,19.9999 C24.3691,16.5139 26.3831,14.7679 28.3971,12.8579 L28.3971,12.8579 Z" stroke="#FFFFFF" stroke-width="2" stroke-linecap="round" stroke-linejoin="round"></path><path d="M17,11.0002 L17,12.0002" stroke="#FFFFFF" stroke-width="2" stroke-linecap="round" stroke-linejoin="round"></path><path d="M20,15.0002 L20,16.0002" stroke="#FFFFFF" stroke-width="2" stroke-linecap="round" stroke-linejoin="round"></path><path d="M23,11.0002 L23,12.0002" stroke="#FFFFFF" stroke-width="2" stroke-linecap="round" stroke-linejoin="round"></path></g></g></g></svg>