<svg fill="#FFFFFF" xmlns="http://www.w3.org/2000/svg" xmlns:xlink="http://www.w3.org/1999/xlink" version="1.1" x="0px" y="0px" viewBox="0 0 100 100" enable-background="new 0 0 100 100" xml:space="preserve"><g display="none"><rect x="-986.282" y="-1141.809" display="inline" fill="#FFFFFF" width="1230" height="1241.809"></rect></g><g><g><path fill="#FFFFFF" d="M83.25,47.203l-3.632-4.531l-3.626,4.523c-2.71,3.382-6.748,5.321-11.08,5.321h-0.001    c-4.332,0-8.371-1.94-11.079-5.321l-3.623-4.524l-3.63,4.528c-2.709,3.381-6.747,5.321-11.079,5.321s-8.371-1.94-11.079-5.32    l-3.628-4.529l-3.628,4.528c-2.709,3.381-6.747,5.32-11.079,5.32c-0.365,0-0.725-0.033-1.085-0.061v4.838    c0.36,0.02,0.722,0.03,1.085,0.03c5.734,0,11.082-2.537,14.707-6.968c3.625,4.432,8.974,6.969,14.707,6.969    s11.083-2.538,14.708-6.969c3.624,4.429,8.971,6.965,14.703,6.965c0.001,0,0,0,0.001,0c5.732,0,11.081-2.536,14.706-6.966    c3.625,4.434,8.976,6.972,14.711,6.972c0.225,0,0.448-0.011,0.671-0.019v-4.827c-0.224,0.01-0.445,0.038-0.671,0.038    C89.997,52.521,85.958,50.583,83.25,47.203z"></path><path fill="#FFFFFF" d="M94.329,81.027c-4.332,0-8.371-1.939-11.079-5.319l-3.632-4.531l-3.626,4.523    c-2.71,3.382-6.748,5.321-11.08,5.321h-0.001c-4.332,0-8.371-1.94-11.079-5.321l-3.623-4.524l-3.63,4.528    c-2.709,3.381-6.746,5.32-11.078,5.32c-4.333,0.001-8.372-1.939-11.08-5.319l-3.627-4.528l-3.629,4.526    c-2.709,3.381-6.746,5.32-11.078,5.321c-0.366,0-0.726-0.033-1.086-0.061v4.839c0.36,0.02,0.723,0.03,1.086,0.03    c5.733-0.001,11.082-2.538,14.705-6.968c3.626,4.431,8.975,6.968,14.709,6.968c5.733,0,11.082-2.537,14.707-6.968    c3.624,4.429,8.971,6.965,14.703,6.965c0.001,0,0,0,0.001,0c5.732,0,11.081-2.536,14.706-6.966    c3.625,4.434,8.976,6.972,14.711,6.972c0.225,0,0.448-0.011,0.671-0.019V80.99C94.776,81,94.555,81.027,94.329,81.027z"></path><path fill="#FFFFFF" d="M6.085,28.821c5.734,0,11.082-2.537,14.707-6.968c3.625,4.432,8.974,6.969,14.707,6.969    s11.083-2.538,14.708-6.969c3.625,4.429,8.972,6.965,14.704,6.966c0,0,0,0,0.001,0c5.731,0,11.08-2.537,14.705-6.966    c3.626,4.433,8.976,6.971,14.711,6.971c0.225,0,0.448-0.011,0.671-0.019v-4.827c-0.224,0.01-0.445,0.038-0.671,0.038    c-4.332,0-8.371-1.939-11.079-5.319l-3.632-4.531l-3.626,4.524c-2.709,3.382-6.747,5.321-11.079,5.321h-0.001    c-4.333,0-8.372-1.94-11.08-5.322l-3.623-4.524l-3.63,4.528c-2.709,3.381-6.747,5.321-11.079,5.321s-8.371-1.94-11.079-5.32    l-3.628-4.529l-3.628,4.528c-2.709,3.381-6.747,5.32-11.079,5.32c-0.365,0-0.725-0.033-1.085-0.061v4.838    C5.36,28.811,5.722,28.821,6.085,28.821z"></path></g></g></svg>