<svg fill="#FFFFFF" xmlns="http://www.w3.org/2000/svg" xmlns:xlink="http://www.w3.org/1999/xlink" version="1.1" x="0px" y="0px" viewBox="0 0 100 100" enable-background="new 0 0 100 100" xml:space="preserve"><g><path d="M84.472,83.421H80.46V31.213H19.54v52.208h-4.012c-1.658,0-3.008,1.35-3.008,3.008v7.647h74.959v-7.647   C87.479,84.771,86.13,83.421,84.472,83.421z M85.976,92.572H14.024v-6.144c0-0.829,0.675-1.504,1.504-1.504h5.517V32.717h57.911   v52.208h5.516c0.829,0,1.504,0.675,1.504,1.504V92.572z"></path><path d="M38.624,38.019H27.626v10.998h10.998V38.019z M37.12,47.513h-7.99v-7.99h7.99V47.513z"></path><path d="M61.376,49.017h10.999V38.019H61.376V49.017z M62.881,39.522h7.989v7.99h-7.989V39.522z"></path><path d="M38.624,60.546H27.626v10.996h10.998V60.546z M37.12,70.038h-7.99V62.05h7.99V70.038z"></path><path d="M61.376,71.542h10.999V60.546H61.376V71.542z M62.881,62.05h7.989v7.988h-7.989V62.05z"></path><path d="M49.247,75.335h-11.76v15.733h11.76h1.505h11.76V75.335h-11.76H49.247z M49.247,89.563H38.992V76.84h10.255V89.563z    M61.008,76.84v12.724H50.752V76.84H61.008z"></path><circle cx="46.38" cy="83.719" r="1.363"></circle><circle cx="53.619" cy="83.719" r="1.363"></circle><path d="M43.136,49.282l0.012,0.018c0.042,0.064,1.014,1.639-0.036,4.339c-0.655,1.685-0.573,3.717,0.222,5.435   c0.631,1.368,2.008,3.216,4.98,4.25c0.007,0.003,0.741,0.266,1.496,0.683l0.189,0.104l0.19-0.104   c0.752-0.415,1.492-0.68,1.496-0.682c2.976-1.035,4.352-2.883,4.983-4.251c0.794-1.718,0.877-3.752,0.222-5.435   c-1.051-2.701-0.078-4.275-0.039-4.337l0.014-0.02c0.003-0.003,0.201-0.348,0.516-0.674l0.292-0.306l-2.302-1.892l-0.218,0.092   c-0.007,0.002-0.673,0.275-1.593,0.275c-1.261,0-2.363-0.489-3.276-1.454l-0.285-0.301l-0.284,0.301   c-0.913,0.965-2.014,1.454-3.275,1.454c-0.919,0-1.585-0.272-1.591-0.275l-0.219-0.093l-2.305,1.893l0.295,0.306   C42.935,48.935,43.136,49.28,43.136,49.282z M44.772,47.308c0.313,0.1,0.916,0.255,1.667,0.255c0.948,0,2.307-0.255,3.56-1.417   c1.254,1.163,2.612,1.417,3.562,1.417c0.751,0,1.355-0.155,1.667-0.255l1.309,1.076c-0.197,0.247-0.319,0.453-0.347,0.499   c-0.111,0.176-1.202,2.03-0.029,5.041c0.578,1.49,0.502,3.293-0.204,4.821c-0.567,1.229-1.813,2.894-4.53,3.841   c-0.03,0.01-0.688,0.245-1.427,0.633c-0.735-0.388-1.394-0.623-1.426-0.635c-2.714-0.945-3.96-2.607-4.527-3.839   c-0.707-1.528-0.783-3.331-0.203-4.821c1.172-3.014,0.078-4.869-0.03-5.042c-0.027-0.045-0.151-0.251-0.349-0.499L44.772,47.308z"></path><polygon points="47.699,57.168 49.999,55.52 52.3,57.168 51.443,54.471 53.722,52.793 50.892,52.773 49.999,50.088 49.107,52.773    46.278,52.793 48.556,54.471  "></polygon><path d="M82.15,20.684H50.752v-4.748h12.129v-9.26H50.752V5.924h-1.505v0.752v9.26v4.748H17.848v9.776H82.15V20.684z M61.376,8.18   v6.252H50.752V8.18H61.376z M80.646,28.957H19.352v-6.769h61.295V28.957z"></path></g></svg>