<svg fill="#FFFFFF" xmlns="http://www.w3.org/2000/svg" xmlns:xlink="http://www.w3.org/1999/xlink" version="1.1" x="0px" y="0px" viewBox="0 0 48 48" enable-background="new 0 0 48 48" xml:space="preserve"><g><path fill="#FFFFFF" d="M48,48H0V27.7l13.5-8.9v7.6L25,18.7v7.6l11.5-7.6v7.6L48,18.7V48z M2,46h44V22.5l-11.5,7.6v-7.6L23,30.1   v-7.6l-11.5,7.6v-7.6L2,28.7V46z"></path><polygon fill="#FFFFFF" points="39.5,24.5 37.2,2 33.3,2 31.1,23.8 29.1,23.6 31.5,0 39,0 41.5,24.3  "></polygon><rect x="5.6" y="35.1" fill="#FFFFFF" width="2" height="2.7"></rect><rect x="10.7" y="35.1" fill="#FFFFFF" width="2" height="2.7"></rect><rect x="15.9" y="35.1" fill="#FFFFFF" width="2" height="2.7"></rect><rect x="21.1" y="35.1" fill="#FFFFFF" width="2" height="2.7"></rect><rect x="26.2" y="35.1" fill="#FFFFFF" width="2" height="2.7"></rect><rect x="31.4" y="35.1" fill="#FFFFFF" width="2" height="2.7"></rect><rect x="36.5" y="35.1" fill="#FFFFFF" width="2" height="2.7"></rect></g></svg>