<svg fill="#FFFFFF" xmlns="http://www.w3.org/2000/svg" xmlns:xlink="http://www.w3.org/1999/xlink" version="1.1" x="0px" y="0px" viewBox="0 0 100 100" enable-background="new 0 0 100 100" xml:space="preserve"><path d="M78.175,60.391c0.182-0.666-1-2.211-1-2.211v-0.605l-1.241-1.394l-0.242-0.515l-1.817-1.575l-0.363-0.787  c0,0-0.908-0.969-1.848-1.15c-0.938-0.182-1.968-0.605-1.968-0.605s-5.3-2.756-6.511-2.999s-3.301,0.757-3.967,0.817  s-0.272-0.817-0.272-0.817s0.636-0.151,1.847-0.303c1.212-0.152,0.788-2.695,0.788-2.695s3.664-1.272,4.513-1.787  c0.848-0.515,0.787-1.474,0.787-1.474s1.06-1.01,1.544-2.221s1.938-5.663,2.544-5.966c0.606-0.303,1.303,0.454,1.303,0.454  c-0.212-0.939-0.576-0.817-1.15-1.242c-0.576-0.424-0.152-1.968,0.332-2.998s1.757-0.061,1.757-0.061  c-0.485-1.302-1.938-0.757-1.423-1.544c0.514-0.788,1.574-0.061,1.574-0.061c-0.213-0.939-1.363-0.727-1.363-0.727  s-0.061-0.454-0.029-0.878c0.029-0.424-0.092-1.635,0.515-2.634s-0.333-0.848-0.394-1.757s-0.182-2.271-0.484-2.786  s-0.667-1.181-0.849-3.119s-1.272-2.877-1.272-2.877s-0.15-1.029-0.727-1.393c-0.574-0.364-1.2,0.53-1.2,0.53  c-1.627-0.222-2.661,1.849-2.661,1.849c0.665-1.109,3.623-1.479,5.396,2.883c1.775,4.362,0.74,9.612,0.37,10.203  s-1.774,0.592-1.774,0.592c0.518,1.849-0.443,4.954-0.666,6.876c-0.221,1.922-2.144,5.324-2.144,5.324s-0.813,0.295-1.183,0.148  c-0.37-0.147-0.666,0.813-1.076,1.109c-0.409,0.296-2.178,0.296-2.178,0.296c-0.073-2.44,7.024-11.46,4.141-20.999  s-11.09-11.46-11.09-11.46c4.953,3.032,10.055,9.538,10.129,16.562s-5.842,11.09-6.95,11.608s-2.292,1.109-2.588-0.518  s1.405-1.701,2.515-1.701s0.295-2.366,0-2.81c-0.296-0.444-0.297,0.592-0.371,1.331s-0.664,0.961-1.404,0.666s0.296,0.591-2.07,0  s-1.627-9.464-1.848-13.9c-0.223-4.437-0.592-4.066-0.592-4.066h-0.497c0,0-0.37-0.37-0.592,4.066s0.518,13.309-1.848,13.9  s-1.331-0.295-2.07,0s-1.331,0.074-1.405-0.666s-0.075-1.775-0.37-1.331s-1.109,2.81,0,2.81s2.81,0.074,2.514,1.701  s-1.479,1.035-2.588,0.518s-7.024-4.583-6.95-11.608s5.175-13.53,10.129-16.562c0,0-8.207,1.922-11.09,11.46  s4.214,18.559,4.14,20.999c0,0-1.768,0-2.178-0.296s-0.706-1.256-1.075-1.109s-1.183-0.148-1.183-0.148s-1.922-3.401-2.144-5.324  s-1.183-5.027-0.666-6.876c0,0-1.405,0-1.774-0.592s-1.405-5.841,0.37-10.203s4.732-3.992,5.397-2.883c0,0-1.035-2.07-2.662-1.849  c0,0-0.625-0.894-1.201-0.53s-0.727,1.393-0.727,1.393s-1.09,0.938-1.272,2.877s-0.545,2.604-0.848,3.119s-0.424,1.877-0.484,2.786  s-1,0.758-0.394,1.757s0.485,2.21,0.515,2.634s-0.03,0.878-0.03,0.878s-1.15-0.212-1.363,0.727c0,0,1.06-0.727,1.575,0.061  s-0.938,0.242-1.423,1.544c0,0,1.272-0.969,1.756,0.061s0.908,2.574,0.333,2.998s-0.939,0.303-1.151,1.242  c0,0,0.696-0.757,1.302-0.454s2.06,4.754,2.544,5.966s1.544,2.221,1.544,2.221s-0.061,0.959,0.787,1.474s4.512,1.787,4.512,1.787  s-0.424,2.543,0.788,2.695s1.847,0.303,1.847,0.303s0.394,0.878-0.272,0.817s-2.756-1.06-3.967-0.817s-6.51,2.999-6.51,2.999  s-1.029,0.424-1.968,0.605s-1.848,1.15-1.848,1.15l-0.363,0.787l-1.817,1.575l-0.242,0.515l-1.242,1.394v0.605  c0,0-1.181,1.545-0.999,2.211s-0.879,3.905-0.243,4.572s0.575,2.211,1.666,2.302s1.696-0.272,1.696-0.272l-1.242-0.454l1.181-0.484  c0,0-1.575,0.213-1.787-0.363s0.182-1.182-0.272-1.908s-0.484-1.969-0.333-2.574s0.363-0.878,0.515-1.241s0.333-1.908,0.333-1.908  s0.515,0.212,0.727-0.091s0.788-1.726,0.788-1.726s0.272,0.213,0.727-0.182s1.363-1.787,1.363-1.787l0.969-0.666l-0.515,1.029  l1.333-1.029l0.212,2.12c0,0,0.423-2.028,1.12-2.635s6.239-3.241,6.239-3.241s0.242,0.122,0.848,0.606s0.697,0.544,0.364,1.241  s-0.817,1.635-1.09,3.967s-0.727,7.784-0.667,9.51c0,0-1.848,0.392-2.514,2.104s-1.06,4.165-1.333,4.438s-0.515,0.666-0.515,0.666  l0.03,0.605c0,0-0.606,1.969-1.242,2.786s-1.06,1.817-0.938,2.514s-0.363,2.06-0.696,2.514s-0.122,0.787-0.061,1.09  s-0.394,1.938,0,2.423s0.182,1.787,0.606,2.362s0.454,0.544,0.757,1.756s0.605,2.12,1.605,2.483c0,0,0.697,1.271,1.757,1.06  s1.484-0.727,1.484-0.727s-1.121,0.424-1.787,0.091s-0.787-1.181-0.787-1.181s-1.514-1.424-1.544-2.029s-0.636-1.999-0.636-1.999  s-0.272-1.06-0.272-1.514s-0.151-1.06-0.151-1.06l0.061-1.938c0,0,0.091-0.544,0.454-1.483s0.363-1.938,0.363-1.938l0.272-0.636  l0.151,1.848l1.151-3.483l1.333-4.33l0.817-3.452c0,0,0.413-0.939,0.812-0.849s0.732,0.364,0.732,0.364l0.636-0.062  c0,0,1.483,11.387,12.052,11.356l0.382-0.356l0.383,0.356c10.569,0.03,12.052-11.356,12.052-11.356l0.637,0.062  c0,0,0.333-0.273,0.732-0.364s0.812,0.849,0.812,0.849l0.816,3.452l1.333,4.33l1.151,3.483l0.15-1.848l0.273,0.636  c0,0,0,0.999,0.363,1.938s0.453,1.483,0.453,1.483l0.062,1.938c0,0-0.151,0.605-0.151,1.06s-0.272,1.514-0.272,1.514  s-0.606,1.394-0.636,1.999c-0.031,0.605-1.545,2.029-1.545,2.029s-0.121,0.848-0.787,1.181s-1.787-0.091-1.787-0.091  s0.424,0.515,1.484,0.727c1.059,0.212,1.756-1.06,1.756-1.06c1-0.363,1.303-1.271,1.605-2.483s0.333-1.181,0.757-1.756  s0.212-1.878,0.606-2.362c0.394-0.484-0.062-2.12,0-2.423c0.061-0.303,0.271-0.636-0.062-1.09s-0.817-1.817-0.696-2.514  s-0.303-1.696-0.938-2.514s-1.241-2.786-1.241-2.786l0.029-0.605c0,0-0.242-0.394-0.514-0.666c-0.273-0.272-0.667-2.726-1.333-4.438  s-2.514-2.104-2.514-2.104c0.061-1.726-0.394-7.178-0.667-9.51c-0.272-2.332-0.756-3.27-1.09-3.967s-0.242-0.757,0.363-1.241  c0.606-0.484,0.848-0.606,0.848-0.606s5.543,2.634,6.239,3.241s1.12,2.635,1.12,2.635l0.212-2.12l1.333,1.029l-0.516-1.029  l0.97,0.666c0,0,0.908,1.393,1.362,1.787c0.455,0.395,0.727,0.182,0.727,0.182s0.576,1.423,0.788,1.726s0.727,0.091,0.727,0.091  s0.183,1.545,0.333,1.908c0.152,0.363,0.363,0.636,0.516,1.241c0.15,0.605,0.121,1.848-0.334,2.574  c-0.453,0.727-0.061,1.332-0.271,1.908c-0.213,0.576-1.787,0.363-1.787,0.363l1.181,0.484l-1.241,0.454c0,0,0.605,0.363,1.695,0.272  c1.091-0.091,1.029-1.635,1.666-2.302S77.993,61.057,78.175,60.391z M51.264,75.659c0,0-0.43,0.027-1.194,0.024  c-0.38-0.043-0.851-0.064-1.383-0.17c-0.264-0.07-0.544-0.145-0.84-0.223c-0.287-0.115-0.588-0.236-0.903-0.363  c-0.308-0.143-0.609-0.335-0.932-0.515c-0.305-0.205-0.604-0.446-0.903-0.697c-0.562-0.54-1.122-1.156-1.539-1.883  c-0.458-0.706-0.786-1.498-1.073-2.307c-0.256-0.815-0.482-1.651-0.615-2.495c-0.611-3.377-0.292-6.749,0.04-9.216  c0.38-2.474,0.851-4.072,0.851-4.073c0.025-0.086,0.116-0.136,0.202-0.11c0.077,0.023,0.125,0.101,0.115,0.179  c0,0-0.046,0.407-0.127,1.121c-0.08,0.714-0.173,1.737-0.228,2.965c-0.067,1.225-0.104,2.655-0.032,4.177  c0.082,1.519,0.202,3.134,0.557,4.688c0.329,1.558,0.89,3.042,1.645,4.242c0.366,0.611,0.815,1.116,1.259,1.572  c0.243,0.203,0.479,0.4,0.708,0.592c0.252,0.158,0.483,0.334,0.728,0.468c0.252,0.122,0.494,0.238,0.723,0.35  c0.245,0.082,0.477,0.16,0.695,0.234c0.439,0.146,0.847,0.215,1.176,0.297c0.677,0.073,1.071,0.144,1.071,0.144l0.057,0.01  c0.271,0.049,0.452,0.309,0.403,0.58C51.683,75.479,51.488,75.646,51.264,75.659z M57.618,46.547  c-0.462,0.051-0.759,0.002-1.149,0.008c-1.521-0.08-2.959-0.308-4.028-0.323c-0.269-0.013-0.51-0.003-0.719,0.019  c-0.212,0.015-0.4,0.021-0.541,0.067c-0.293,0.065-0.461,0.102-0.461,0.102l-0.052,0.011c-0.134,0.03-0.266-0.055-0.296-0.189  c-0.027-0.123,0.043-0.245,0.158-0.287c0,0,0.186-0.067,0.512-0.185c0.164-0.07,0.367-0.098,0.601-0.138  c0.235-0.052,0.5-0.078,0.785-0.082c0.576-0.036,1.233-0.005,1.927,0.053c0.682,0.052,1.408,0.108,2.136,0.164  c0.346,0.003,0.788,0.054,1.048,0.018c0.306-0.004,0.526-0.133,0.695-0.307c0.35-0.366,0.404-1.023,0.396-1.527  c-0.008-0.522-0.071-0.969-0.128-1.276c-0.058-0.31-0.103-0.479-0.104-0.479c-0.034-0.127,0.041-0.257,0.168-0.292  c0.119-0.032,0.244,0.037,0.287,0.15c0,0,0.068,0.182,0.159,0.5c0.087,0.321,0.213,0.781,0.262,1.365  c0.026,0.291,0.024,0.615-0.024,0.966c-0.063,0.344-0.152,0.746-0.456,1.085C58.507,46.304,58.042,46.534,57.618,46.547z"></path></svg>