<svg fill="#FFFFFF" xmlns="http://www.w3.org/2000/svg" xmlns:xlink="http://www.w3.org/1999/xlink" version="1.1" x="0px" y="0px" viewBox="0 0 100 100" enable-background="new 0 0 100 100" xml:space="preserve"><path d="M65.089,45.279l4.453,1.105c1.018,1.355,4.336,5.704,6.975,8.344c0.275,0.273,0.635,0.412,0.996,0.412  c0.359,0,0.721-0.139,0.996-0.412c0.549-0.551,0.549-1.441,0-1.992c-2.941-2.94-6.967-8.379-7.006-8.434  c-0.195-0.264-0.477-0.451-0.795-0.529l-8.703-2.162c-0.189-0.195-0.379-0.387-0.562-0.564c-1.332-1.291-2.547-2.117-3.676-2.502  c-0.156-0.297-0.352-0.586-0.59-0.863c0.07-0.059,0.137-0.123,0.195-0.197L71.466,20c0.488-0.605,0.393-1.49-0.213-1.979  s-1.492-0.393-1.98,0.213L55.179,35.716c-0.062,0.08-0.117,0.164-0.16,0.252c-0.518-0.297-1.1-0.582-1.746-0.854  c1.818-1.176,3.807-2.955,3.76-5.094c0.131-0.127,0.252-0.266,0.361-0.416c1.059-1.457,0.734-3.504-0.723-4.562  c-0.561-0.408-1.225-0.623-1.918-0.623c-0.875,0-1.711,0.355-2.318,0.969c-0.615-0.244-1.291-0.477-2.031-0.693  c-0.262-0.078-0.537-0.078-0.797,0c-0.744,0.219-1.424,0.451-2.039,0.695c-0.123-0.123-0.254-0.242-0.4-0.348  c-0.561-0.408-1.225-0.623-1.918-0.623c-1.043,0-2.031,0.504-2.643,1.346c-0.967,1.33-0.777,3.148,0.369,4.262  c-0.043,2.135,1.943,3.912,3.76,5.088c-0.648,0.273-1.232,0.559-1.752,0.857c-0.045-0.088-0.098-0.174-0.164-0.256L30.726,18.234  c-0.488-0.605-1.373-0.701-1.979-0.213S28.046,19.394,28.534,20l14.094,17.484c0.061,0.076,0.129,0.143,0.201,0.201  c-0.236,0.277-0.43,0.562-0.584,0.857c-1.133,0.383-2.348,1.211-3.684,2.504c-0.184,0.178-0.371,0.367-0.561,0.564l-8.711,2.162  c-0.316,0.078-0.598,0.266-0.793,0.529c-0.039,0.055-4.062,5.492-7.006,8.434c-0.549,0.551-0.549,1.441,0,1.992  c0.275,0.273,0.637,0.412,0.996,0.412c0.361,0,0.721-0.139,0.996-0.412c2.639-2.641,5.957-6.989,6.975-8.344l4.459-1.107  c-3.188,4.215-6.625,9.956-9.223,15.545c-3.219,6.93-6.352,16.102-2.988,20.445c0.361,0.467,1.072,1.023,2.41,1.023c0,0,0,0,0.002,0  c2.381,0,6.244-1.783,10.336-4.768c2.371-1.732,4.574-3.693,6.508-5.775c1.809,7.516,5.025,8.305,8.041,8.305l0,0c0,0,0,0,0.002,0  c3.014,0,6.23-0.789,8.039-8.303c1.934,2.08,4.135,4.041,6.506,5.771c4.092,2.986,7.957,4.77,10.338,4.77  c1.338,0,2.049-0.557,2.412-1.023c3.363-4.344,0.23-13.516-2.99-20.445C71.712,55.234,68.274,49.494,65.089,45.279z M50.003,51.242  c-0.133-0.864-0.332-1.717-0.594-2.559c0.123,0.002,0.215,0.008,0.275,0.016c0.152,0.033,0.311,0.041,0.473,0.021  c0.018-0.002,0.033-0.004,0.051-0.008c0.014-0.002,0.027-0.002,0.039-0.006c0.02-0.002,0.146-0.021,0.348-0.025  C50.333,49.525,50.134,50.378,50.003,51.242z M52.112,42.685c-0.117,0.477-0.203,0.951-0.268,1.393  c-0.615,0.377-1.248,0.723-1.842,1.006c-0.602-0.289-1.232-0.633-1.844-1.012c-0.064-0.439-0.15-0.912-0.268-1.387  c-0.514-2.09-1.379-3.207-2.25-3.789c0.766-0.578,2.084-1.266,4.363-1.969c2.275,0.703,3.596,1.389,4.359,1.967  C53.493,39.476,52.628,40.593,52.112,42.685z M46.081,30.841c0.719-0.191,1.363-0.623,1.809-1.236c0.344-0.473,0.539-1.01,0.6-1.553  c0.441-0.178,0.945-0.357,1.516-0.537c0.566,0.178,1.068,0.357,1.508,0.535c0.1,0.879,0.549,1.717,1.32,2.277  c0.332,0.242,0.701,0.414,1.092,0.516c-0.652,0.932-2.285,2.084-3.922,2.883C48.364,32.929,46.729,31.775,46.081,30.841z   M25.116,79.475c-0.123,0-0.203-0.012-0.25-0.02c-1.795-2.51-0.537-9.01,3.383-17.447c3.455-7.434,8.615-15.399,12.271-18.94  c1.826-1.768,2.809-1.957,3.146-1.957c1.289,0,1.854,3.463,1.857,5.229c0,0.225,0.055,0.445,0.156,0.645  c2.74,5.327,2.217,11.159-1.553,17.334C38.784,73.074,28.458,79.475,25.116,79.475z M53.403,75.77  c-1.1,1.467-2.217,1.467-3.398,1.467c-0.002,0-0.002,0-0.002,0l0,0c-1.184,0-2.301,0-3.398-1.467  c-1.004-1.342-1.781-3.6-2.328-6.734c0.832-1.07,1.59-2.158,2.256-3.25c1.873-3.068,3.029-6.131,3.471-9.125  c0.439,2.992,1.596,6.055,3.469,9.123c0.666,1.094,1.426,2.184,2.26,3.254C55.185,72.172,54.407,74.428,53.403,75.77z   M75.138,79.455c-0.047,0.008-0.127,0.02-0.25,0.02c-3.342,0-13.67-6.402-19.014-15.158c-3.768-6.176-4.289-12.008-1.551-17.333  c0.102-0.199,0.154-0.42,0.156-0.643c0.004-1.768,0.57-5.23,1.859-5.23c0.336,0,1.318,0.189,3.145,1.957  c3.656,3.541,8.818,11.506,12.271,18.94C75.677,70.445,76.935,76.945,75.138,79.455z"></path></svg>