<svg fill="#FFFFFF" xmlns="http://www.w3.org/2000/svg" xmlns:xlink="http://www.w3.org/1999/xlink" version="1.1" x="0px" y="0px" viewBox="0 0 96 96" enable-background="new 0 0 96 96" xml:space="preserve"><g><g><g><path fill="none" stroke="#FFFFFF" stroke-width="2" stroke-linecap="round" stroke-linejoin="round" stroke-miterlimit="10" d="     M25.604,46.584h12.057c-2.47,0-4.654,1.289-5.9,3.236h-6.157"></path></g><g><path fill="none" stroke="#FFFFFF" stroke-width="2" stroke-linecap="round" stroke-linejoin="round" stroke-miterlimit="10" d="     M72.221,39.816c-0.275-0.945-0.713-1.063-1.064-1.063c-0.49,0-0.535,1.343-1.314,2.62c-0.778,1.277-2.718,5.21-6.067,5.21H37.661     c-2.47,0-4.654,1.289-5.9,3.236c-0.701,1.089-1.111,2.384-1.111,3.774v0.724c0,3.861,3.15,7.011,7.011,7.011H52.66     c3.867,0,7.011-3.149,7.011-7.011v-0.724c0-1.391-0.41-2.686-1.111-3.774h5.216c3.349,0,5.409,3.48,6.067,5.215     c0.659,1.733,0.898,2.696,1.416,2.696c0.367,0,0.72-0.06,1-1.089c0.497-1.78,0.82-4.854,0.82-8.344     C73.078,44.713,72.733,41.568,72.221,39.816z M56.436,54.318c0,2.082-1.694,3.774-3.775,3.774H37.661     c-2.081,0-3.775-1.692-3.775-3.774v-0.724c0-2.081,1.694-3.774,3.775-3.774H52.66c2.082,0,3.775,1.693,3.775,3.774V54.318z"></path></g><line fill="none" stroke="#FFFFFF" stroke-width="2" stroke-linecap="round" stroke-linejoin="round" stroke-miterlimit="10" x1="52.382" y1="49.82" x2="59.394" y2="49.82"></line><path fill="none" stroke="#FFFFFF" stroke-width="2" stroke-linecap="round" stroke-linejoin="round" stroke-miterlimit="10" d="    M22.922,50.315c0,0.596,0.483,1.079,1.079,1.079h0.337c0.595,0,1.079-0.483,1.079-1.079v-4.381c0-0.596-0.483-1.078-1.079-1.078    H24c-0.596,0-1.079,0.482-1.079,1.078V50.315z"></path></g><line fill="none" stroke="#FFFFFF" stroke-width="2" stroke-linecap="round" stroke-linejoin="round" stroke-miterlimit="10" x1="45.417" y1="49.82" x2="45.417" y2="57.667"></line><line fill="none" stroke="#FFFFFF" stroke-width="2" stroke-linecap="round" stroke-linejoin="round" stroke-miterlimit="10" x1="51.422" y1="49.82" x2="51.422" y2="57.667"></line><line fill="none" stroke="#FFFFFF" stroke-width="2" stroke-linecap="round" stroke-linejoin="round" stroke-miterlimit="10" x1="39.411" y1="49.82" x2="39.411" y2="57.667"></line><line fill="none" stroke="#FFFFFF" stroke-width="2" stroke-linecap="round" stroke-linejoin="round" stroke-miterlimit="10" x1="45.417" y1="43.759" x2="45.417" y2="46.601"></line><line fill="none" stroke="#FFFFFF" stroke-width="2" stroke-linecap="round" stroke-linejoin="round" stroke-miterlimit="10" x1="51.422" y1="43.759" x2="51.422" y2="46.601"></line><line fill="none" stroke="#FFFFFF" stroke-width="2" stroke-linecap="round" stroke-linejoin="round" stroke-miterlimit="10" x1="50.001" y1="43.178" x2="52.843" y2="43.178"></line><line fill="none" stroke="#FFFFFF" stroke-width="2" stroke-linecap="round" stroke-linejoin="round" stroke-miterlimit="10" x1="43.996" y1="43.178" x2="46.838" y2="43.178"></line><line fill="none" stroke="#FFFFFF" stroke-width="2" stroke-linecap="round" stroke-linejoin="round" stroke-miterlimit="10" x1="37.991" y1="43.178" x2="40.833" y2="43.178"></line><line fill="none" stroke="#FFFFFF" stroke-width="2" stroke-linecap="round" stroke-linejoin="round" stroke-miterlimit="10" x1="39.411" y1="43.759" x2="39.411" y2="46.601"></line></g></svg>