<svg fill="#FFFFFF" xmlns="http://www.w3.org/2000/svg" xmlns:xlink="http://www.w3.org/1999/xlink" version="1.1" x="0px" y="0px" viewBox="0 0 100 100" enable-background="new 0 0 100 100" xml:space="preserve"><path d="M26.5,50.4L26.5,50.4c0-1.3-1-2.3-2.3-2.3c-1.3,0-2.3,1-2.3,2.3l0,0l0,0v12.1h4.6L26.5,50.4L26.5,50.4z"></path><g><polygon points="37.5,20.3 39.3,24.5 40.7,21.7 38.9,17.5  "></polygon><polygon points="40.4,14.5 42.3,18.7 43.7,15.9 41.9,11.8  "></polygon><polygon points="34.5,26 36.3,30.2 37.7,27.5 35.9,23.3  "></polygon><polygon points="31.5,31.8 33.3,36 34.8,33.2 33,29  "></polygon><polygon points="28.5,37.6 30.3,41.8 31.8,39 30,34.8  "></polygon><polygon points="43.4,8.8 45.2,13 46.7,10.2 44.8,6  "></polygon><polygon points="47.5,5.5 48.2,7.2 48.7,6.2  "></polygon><polygon points="22.6,49.1 23.4,51 25.1,51.9 25.8,50.5 24,46.3  "></polygon><polygon points="25.6,43.3 27.4,47.5 28.8,44.7 27,40.5  "></polygon></g><path d="M68.8,77.4H75v-3.6h-8l-1.9-3.6h5.1v-3.6h-6.9l-1.9-3.7h4.1v-3.6h-5.9l-1.3-2.6h3.5v-3.6h-5.3l-1.8-3.6h-2.6l1.5,3.6h-5  h-2.7l1.5-3.6h-2.5L43,53.1h-5.3v3.6h3.5l-1.3,2.6H34v3.6H38l-1.9,3.7h-7v3.6h5.1l-1.9,3.6h-7.9v3.6h6.2l-2.4,4.8h-7.5v3.6h5.7  l-3.7,7.3h7l3-7.3h17h0.4h17l3,7.3h7l-3.7-7.3h5.7v-3.6h-7.5L68.8,77.4z M44.5,56.8h4.1h6.5l1,2.6h-6.2h-3.7h-2.8L44.5,56.8z   M42,62.9h4.3H50h7.6l1.5,3.7h-8.6H49h-8.5L42,62.9z M39,70.2h10h1.5h10l1.5,3.6h-8.3h-7.9h-8.3L39,70.2z M49.9,82.3h-0.4H34.1  l1.9-4.8h9.7h7.9h9.7l1.9,4.8H49.9z"></path><path d="M26.5,50.4L26.5,50.4c0-1.3-1-2.3-2.3-2.3c-1.3,0-2.3,1-2.3,2.3l0,0l0,0v12.1h4.6L26.5,50.4L26.5,50.4z"></path><g><polygon points="37.5,20.3 39.3,24.5 40.7,21.7 38.9,17.5  "></polygon><polygon points="40.4,14.5 42.3,18.7 43.7,15.9 41.9,11.8  "></polygon><polygon points="34.5,26 36.3,30.2 37.7,27.5 35.9,23.3  "></polygon><polygon points="31.5,31.8 33.3,36 34.8,33.2 33,29  "></polygon><polygon points="28.5,37.6 30.3,41.8 31.8,39 30,34.8  "></polygon><polygon points="43.4,8.8 45.2,13 46.7,10.2 44.8,6  "></polygon><polygon points="47.5,5.5 48.2,7.2 48.7,6.2  "></polygon><polygon points="22.6,49.1 23.4,51 25.1,51.9 25.8,50.5 24,46.3  "></polygon><polygon points="25.6,43.3 27.4,47.5 28.8,44.7 27,40.5  "></polygon></g><path d="M68.8,77.4H75v-3.6h-8l-1.9-3.6h5.1v-3.6h-6.9l-1.9-3.7h4.1v-3.6h-5.9l-1.3-2.6h3.5v-3.6h-5.3l-1.8-3.6h-2.6l1.5,3.6h-5  h-2.7l1.5-3.6h-2.5L43,53.1h-5.3v3.6h3.5l-1.3,2.6H34v3.6H38l-1.9,3.7h-7v3.6h5.1l-1.9,3.6h-7.9v3.6h6.2l-2.4,4.8h-7.5v3.6h5.7  l-3.7,7.3h7l3-7.3h17h0.4h17l3,7.3h7l-3.7-7.3h5.7v-3.6h-7.5L68.8,77.4z M44.5,56.8h4.1h6.5l1,2.6h-6.2h-3.7h-2.8L44.5,56.8z   M42,62.9h4.3H50h7.6l1.5,3.7h-8.6H49h-8.5L42,62.9z M39,70.2h10h1.5h10l1.5,3.6h-8.3h-7.9h-8.3L39,70.2z M49.9,82.3h-0.4H34.1  l1.9-4.8h9.7h7.9h9.7l1.9,4.8H49.9z"></path></svg>