<svg fill="#FFFFFF" xmlns="http://www.w3.org/2000/svg" xmlns:xlink="http://www.w3.org/1999/xlink" version="1.1" x="0px" y="0px" viewBox="0 0 100 100" enable-background="new 0 0 100 100" xml:space="preserve"><g><path fill="#FFFFFF" d="M85.788,20.158c0-4.306-3.503-7.809-7.809-7.809s-7.809,3.503-7.809,7.809c0,4.305,3.503,7.808,7.809,7.808   S85.788,24.463,85.788,20.158z M77.979,24.966c-2.651,0-4.809-2.157-4.809-4.808s2.157-4.809,4.809-4.809s4.809,2.157,4.809,4.809   S80.631,24.966,77.979,24.966z"></path><rect x="76.479" y="7.114" fill="#FFFFFF" width="3" height="4.238"></rect><rect x="76.479" y="28.948" fill="#FFFFFF" width="3" height="4.238"></rect><rect x="68.76" y="25.751" transform="matrix(-0.7071 -0.7071 0.7071 -0.7071 100.2348 97.2583)" fill="#FFFFFF" width="3" height="4.237"></rect><rect x="84.199" y="10.312" transform="matrix(0.7071 0.7071 -0.7071 0.7071 33.8907 -56.9576)" fill="#FFFFFF" width="3" height="4.237"></rect><rect x="83.58" y="26.37" transform="matrix(-0.707 -0.7072 0.7072 -0.707 126.5842 108.1787)" fill="#FFFFFF" width="4.237" height="3"></rect><rect x="68.142" y="10.931" transform="matrix(0.7069 0.7073 -0.7073 0.7069 29.383 -46.0506)" fill="#FFFFFF" width="4.237" height="3"></rect><rect x="86.778" y="18.651" fill="#FFFFFF" width="4.238" height="3"></rect><rect x="64.944" y="18.651" fill="#FFFFFF" width="4.237" height="3"></rect><path fill="#FFFFFF" d="M24.522,43.812c-2.587,1.231-3.855,3.793-4.473,5.857c-2.525-1.434-5.984-1.208-6.508-1.164   c-0.825,0.069-1.438,0.795-1.369,1.621s0.795,1.425,1.621,1.369c1.033-0.086,5.046-0.027,5.78,1.858   c0.227,0.583,0.787,0.954,1.396,0.954c0.077,0,0.155-0.006,0.233-0.018c0.696-0.109,1.223-0.689,1.266-1.393   c0.003-0.05,0.335-4.944,3.343-6.376c0.748-0.356,1.066-1.251,0.71-1.999C26.166,43.773,25.27,43.457,24.522,43.812z"></path><path fill="#FFFFFF" d="M23.042,67.593c0.257,0.175,0.552,0.261,0.845,0.261c0.374,0,0.745-0.14,1.032-0.411   c0.036-0.033,3.664-3.355,6.806-2.341c0.789,0.254,1.634-0.179,1.888-0.968c0.254-0.788-0.179-1.634-0.967-1.888   c-2.729-0.881-5.408,0.114-7.274,1.191c-0.853-2.776-3.523-4.986-3.934-5.313c-0.646-0.516-1.588-0.408-2.105,0.238   c-0.517,0.646-0.411,1.59,0.234,2.107c0.996,0.799,3.672,3.49,2.93,5.32C22.232,66.444,22.458,67.194,23.042,67.593z"></path><path fill="#FFFFFF" d="M74.086,66.155c3.973-5.319,4.669-11.939,4.791-14.061l5.307-4.817l-2.016-2.222L54.66,70.026   c-2.705-0.413-5.644-1.203-8.817-2.388l-1.049,2.811c2.48,0.926,4.837,1.624,7.077,2.108l-5.213,4.732h-7.236V36.806h26.925   l-0.57-1.926c-3.624-12.241-15.079-20.79-27.854-20.79c-12.776,0-24.23,8.549-27.854,20.79l-0.57,1.926h26.923V77.29H11.507v3   h76.718v-3h-6.753L74.086,66.155z M53.137,22.054H22.708c4.343-3.134,9.634-4.964,15.214-4.964S48.793,18.92,53.137,22.054z    M19.234,25.054H56.61c1.059,1.088,2.036,2.258,2.896,3.521H16.339C17.198,27.312,18.176,26.142,19.234,25.054z M14.597,31.576   h46.651c0.362,0.726,0.703,1.465,0.997,2.23H13.6C13.894,33.041,14.234,32.302,14.597,31.576z M72.294,63.455l-2.229-3.361   l5.385-4.888C74.997,57.572,74.092,60.677,72.294,63.455z M70.334,65.927c-0.634,0.65-1.334,1.258-2.119,1.796   c-2.58,1.769-5.744,2.648-9.463,2.641l9.065-8.229L70.334,65.927z M55.644,73.185c1.091,0.119,2.147,0.18,3.171,0.18   c4.315,0,8.031-1.061,11.114-3.18c0.764-0.524,1.458-1.1,2.098-1.707l5.846,8.813H51.121L55.644,73.185z"></path><rect x="11.507" y="83.667" fill="#FFFFFF" width="7.91" height="3"></rect><rect x="22.5" y="83.667" fill="#FFFFFF" width="18" height="3"></rect><rect x="43.167" y="83.667" fill="#FFFFFF" width="7.667" height="3"></rect><rect x="55.667" y="83.667" fill="#FFFFFF" width="8.872" height="3"></rect><rect x="67.736" y="83.667" fill="#FFFFFF" width="20.488" height="3"></rect><rect x="80.314" y="89.167" fill="#FFFFFF" width="7.91" height="3"></rect><rect x="59.231" y="89.167" fill="#FFFFFF" width="18" height="3"></rect><rect x="48.898" y="89.167" fill="#FFFFFF" width="7.667" height="3"></rect><rect x="35.192" y="89.167" fill="#FFFFFF" width="8.872" height="3"></rect><rect x="11.507" y="89.167" fill="#FFFFFF" width="20.488" height="3"></rect></g></svg>