<svg fill="#FFFFFF" xmlns="http://www.w3.org/2000/svg" xmlns:xlink="http://www.w3.org/1999/xlink" version="1.1" x="0px" y="0px" viewBox="0.14 0.5 100 100" enable-background="new 0.14 0.5 100 100" xml:space="preserve"><circle cx="40.807" cy="51.319" r="2.074"></circle><path d="M48.223,46.134c-1.146,0-2.074,0.929-2.074,2.074c0,1.146,0.927,2.074,2.074,2.074c1.144,0,2.074-0.929,2.074-2.074  C50.297,47.063,49.367,46.134,48.223,46.134z"></path><circle cx="55.637" cy="45.097" r="2.074"></circle><path d="M93.858,68.603l0.006-0.104c0-0.108,0.005-0.203,0.015-0.285l0.518-9.626c0.532-4.908,0.085-12.204-4.682-20.067  l-0.796-1.31l-1.452,0.487c-0.043,0.015-4.466,1.481-9.91,1.481c-5.097,0-9.32-1.245-12.625-3.679  c-0.212-0.079-0.458-0.257-0.745-0.563c-0.051-0.055-0.104-0.095-0.154-0.146c-0.188-0.158-0.372-0.319-0.551-0.486  c-2.53-1.947-5.237-0.455-5.695-0.176c-5.093,3.185-18.807,11.127-28.915,11.127c-12.03,0-23.161,2.281-23.161,18.825v1.914v2.548  c0,0,0.16,3.515,5.424,3.515H57.22l11.345-3.735v3.735h21.537C90.103,72.058,93.817,72.086,93.858,68.603z M56.606,68.229H9.539  v-2.234h53.851L56.606,68.229z M9.593,62.167c0.585-9.615,5.859-13.082,19.277-13.082c11.788,0,27.113-9.235,31.738-12.204  c4.2,4.016,10.022,6.127,16.948,6.127c0.895,0,1.754-0.04,2.583-0.1l-0.071,0.06c0.062,0.077,6.031,7.503,2.985,19.199H9.593z   M90.042,68.229H72.395v-2.234h17.768L90.042,68.229z M90.731,55.444l-0.158,2.947c-0.191,1.622-0.496,2.92-0.747,3.775h-2.812  c2.198-9.595-0.85-16.605-2.729-19.772c1.162-0.208,2.145-0.435,2.884-0.627c2.815,5.148,3.592,9.927,3.579,13.677L90.731,55.444z"></path></svg>