<svg fill="#FFFFFF" xmlns="http://www.w3.org/2000/svg" xmlns:xlink="http://www.w3.org/1999/xlink" version="1.1" x="0px" y="0px" viewBox="0 0 100 100" enable-background="new 0 0 100 100" xml:space="preserve"><g><path d="M77.6,28.5l-0.7-6.3h-7.7l-0.5-6h-7.6l0.3,6H38.5l0.3-6h-7.5l-0.5,6h-7.7l-0.7,6.3h7.9l-0.5,6.6h-8.1l-0.8,7h8.3l-0.6,7.4   h-8.6l-0.9,7.8H28l-0.7,8.3h-9.1l-1,8.8h9.4l-0.7,9.3h9.6l0.4-9.3h27.9l0.4,9.3h9.8l-0.7-9.3h9.3l-1-8.8h-9L72,57.3h8.8l-0.9-7.8   h-8.5l-0.6-7.4h8.3l-0.8-7h-8.1l-0.5-6.6H77.6z M63.5,65.6H36.4l0.4-8.3h26.3L63.5,65.6z M62.7,49.5H37.2l0.4-7.4h24.8L62.7,49.5z    M62,35.2H37.9l0.3-6.6h23.5L62,35.2z"></path></g></svg>