<svg fill="#FFFFFF" xmlns="http://www.w3.org/2000/svg" xmlns:xlink="http://www.w3.org/1999/xlink" version="1.1" x="0px" y="0px" viewBox="0 0 100 100" style="enable-background:new 0 0 100 100;" xml:space="preserve"><path d="M75.9,60.7L79,70l-4,4L58.3,48.6C55,51.7,48.1,58.1,41.7,63l4.5,13.1L42.3,80l-7.7-12c0,0-0.1,0-0.1,0.1  c-0.1,0.1-0.2,0.1-0.3,0.2c-1.6,0.9-3.3-0.8-2.4-2.4c0.1-0.1,0.1-0.2,0.2-0.3c0,0,0-0.1,0.1-0.1l-12-7.7l3.9-3.9L37,58.3  c5-6.4,11.3-13.3,14.4-16.6L26,25l4-4l9.3,3.1l2.9-2.9c0.3-0.3,0.8-0.3,1,0L45,23c0.3,0.3,0.3,0.8,0,1l-1.5,1.5l17.9,6.1  c7.2-8,12.4-14.7,17.1-10c4.7,4.7-2,9.9-10,17.1l6.1,17.9L76,55c0.3-0.3,0.8-0.3,1,0l1.8,1.8c0.3,0.3,0.3,0.8,0,1L75.9,60.7z"></path></svg>