<svg fill="#FFFFFF" xmlns="http://www.w3.org/2000/svg" xmlns:xlink="http://www.w3.org/1999/xlink" version="1.1" x="0px" y="0px" viewBox="0 0 28.986 32" style="enable-background:new 0 0 28.986 32;" xml:space="preserve"><g><path d="M28.701,8.88L14.493,0L0.285,8.88C0.056,9.023-0.051,9.301,0.023,9.562C0.099,9.821,0.336,10,0.606,10H28.38   c0.271,0,0.508-0.179,0.583-0.438C29.037,9.301,28.931,9.023,28.701,8.88z"></path><path d="M15.493,27c0.553,0,1-0.447,1-1V13c0-0.553-0.447-1-1-1h-2c-0.553,0-1,0.447-1,1v13c0,0.553,0.447,1,1,1H15.493z"></path><path d="M23.493,27c0.553,0,1-0.447,1-1V13c0-0.553-0.447-1-1-1h-2c-0.553,0-1,0.447-1,1v13c0,0.553,0.447,1,1,1H23.493z"></path><path d="M7.493,27c0.553,0,1-0.447,1-1V13c0-0.553-0.447-1-1-1h-2c-0.553,0-1,0.447-1,1v13c0,0.553,0.447,1,1,1H7.493z"></path><path d="M27.493,29h-26c-0.553,0-1,0.447-1,1v1c0,0.553,0.447,1,1,1h26c0.553,0,1-0.447,1-1v-1C28.493,29.447,28.046,29,27.493,29z   "></path></g></svg>